<?xml version="1.0" encoding="utf-8" standalone="no"?>
<!DOCTYPE svg PUBLIC "-//W3C//DTD SVG 1.1//EN"
  "http://www.w3.org/Graphics/SVG/1.1/DTD/svg11.dtd">
<svg xmlns:xlink="http://www.w3.org/1999/xlink" width="892.8pt" height="277.2pt" viewBox="0 0 892.8 277.2" xmlns="http://www.w3.org/2000/svg" version="1.1">
 <metadata>
  <rdf:RDF xmlns:dc="http://purl.org/dc/elements/1.1/" xmlns:cc="http://creativecommons.org/ns#" xmlns:rdf="http://www.w3.org/1999/02/22-rdf-syntax-ns#">
   <cc:Work>
    <dc:type rdf:resource="http://purl.org/dc/dcmitype/StillImage"/>
    <dc:date>2026-05-17T21:56:07.529560</dc:date>
    <dc:format>image/svg+xml</dc:format>
    <dc:creator>
     <cc:Agent>
      <dc:title>Matplotlib v3.10.8, https://matplotlib.org/</dc:title>
     </cc:Agent>
    </dc:creator>
   </cc:Work>
  </rdf:RDF>
 </metadata>
 <defs>
  <style type="text/css">*{stroke-linejoin: round; stroke-linecap: butt}</style>
 </defs>
 <g id="figure_1">
  <g id="patch_1">
   <path d="M 0 277.2 
L 892.8 277.2 
L 892.8 0 
L 0 0 
z
" style="fill: #020617"/>
  </g>
  <g id="axes_1">
   <g id="line2d_1">
    <path d="M 0 277.2 
L 0 0 
" clip-path="url(#p1fff5618bb)" style="fill: none; stroke: #0f172a; stroke-opacity: 0.7; stroke-width: 0.4; stroke-linecap: square"/>
   </g>
   <g id="line2d_2">
    <path d="M 44.64 277.2 
L 44.64 0 
" clip-path="url(#p1fff5618bb)" style="fill: none; stroke: #0f172a; stroke-opacity: 0.7; stroke-width: 0.4; stroke-linecap: square"/>
   </g>
   <g id="line2d_3">
    <path d="M 89.28 277.2 
L 89.28 0 
" clip-path="url(#p1fff5618bb)" style="fill: none; stroke: #0f172a; stroke-opacity: 0.7; stroke-width: 0.4; stroke-linecap: square"/>
   </g>
   <g id="line2d_4">
    <path d="M 133.92 277.2 
L 133.92 0 
" clip-path="url(#p1fff5618bb)" style="fill: none; stroke: #0f172a; stroke-opacity: 0.7; stroke-width: 0.4; stroke-linecap: square"/>
   </g>
   <g id="line2d_5">
    <path d="M 178.56 277.2 
L 178.56 0 
" clip-path="url(#p1fff5618bb)" style="fill: none; stroke: #0f172a; stroke-opacity: 0.7; stroke-width: 0.4; stroke-linecap: square"/>
   </g>
   <g id="line2d_6">
    <path d="M 223.2 277.2 
L 223.2 0 
" clip-path="url(#p1fff5618bb)" style="fill: none; stroke: #0f172a; stroke-opacity: 0.7; stroke-width: 0.4; stroke-linecap: square"/>
   </g>
   <g id="line2d_7">
    <path d="M 267.84 277.2 
L 267.84 0 
" clip-path="url(#p1fff5618bb)" style="fill: none; stroke: #0f172a; stroke-opacity: 0.7; stroke-width: 0.4; stroke-linecap: square"/>
   </g>
   <g id="line2d_8">
    <path d="M 312.48 277.2 
L 312.48 0 
" clip-path="url(#p1fff5618bb)" style="fill: none; stroke: #0f172a; stroke-opacity: 0.7; stroke-width: 0.4; stroke-linecap: square"/>
   </g>
   <g id="line2d_9">
    <path d="M 357.12 277.2 
L 357.12 0 
" clip-path="url(#p1fff5618bb)" style="fill: none; stroke: #0f172a; stroke-opacity: 0.7; stroke-width: 0.4; stroke-linecap: square"/>
   </g>
   <g id="line2d_10">
    <path d="M 401.76 277.2 
L 401.76 0 
" clip-path="url(#p1fff5618bb)" style="fill: none; stroke: #0f172a; stroke-opacity: 0.7; stroke-width: 0.4; stroke-linecap: square"/>
   </g>
   <g id="line2d_11">
    <path d="M 446.4 277.2 
L 446.4 0 
" clip-path="url(#p1fff5618bb)" style="fill: none; stroke: #0f172a; stroke-opacity: 0.7; stroke-width: 0.4; stroke-linecap: square"/>
   </g>
   <g id="line2d_12">
    <path d="M 491.04 277.2 
L 491.04 0 
" clip-path="url(#p1fff5618bb)" style="fill: none; stroke: #0f172a; stroke-opacity: 0.7; stroke-width: 0.4; stroke-linecap: square"/>
   </g>
   <g id="line2d_13">
    <path d="M 535.68 277.2 
L 535.68 0 
" clip-path="url(#p1fff5618bb)" style="fill: none; stroke: #0f172a; stroke-opacity: 0.7; stroke-width: 0.4; stroke-linecap: square"/>
   </g>
   <g id="line2d_14">
    <path d="M 580.32 277.2 
L 580.32 0 
" clip-path="url(#p1fff5618bb)" style="fill: none; stroke: #0f172a; stroke-opacity: 0.7; stroke-width: 0.4; stroke-linecap: square"/>
   </g>
   <g id="line2d_15">
    <path d="M 624.96 277.2 
L 624.96 0 
" clip-path="url(#p1fff5618bb)" style="fill: none; stroke: #0f172a; stroke-opacity: 0.7; stroke-width: 0.4; stroke-linecap: square"/>
   </g>
   <g id="line2d_16">
    <path d="M 669.6 277.2 
L 669.6 0 
" clip-path="url(#p1fff5618bb)" style="fill: none; stroke: #0f172a; stroke-opacity: 0.7; stroke-width: 0.4; stroke-linecap: square"/>
   </g>
   <g id="line2d_17">
    <path d="M 714.24 277.2 
L 714.24 0 
" clip-path="url(#p1fff5618bb)" style="fill: none; stroke: #0f172a; stroke-opacity: 0.7; stroke-width: 0.4; stroke-linecap: square"/>
   </g>
   <g id="line2d_18">
    <path d="M 758.88 277.2 
L 758.88 0 
" clip-path="url(#p1fff5618bb)" style="fill: none; stroke: #0f172a; stroke-opacity: 0.7; stroke-width: 0.4; stroke-linecap: square"/>
   </g>
   <g id="line2d_19">
    <path d="M 803.52 277.2 
L 803.52 0 
" clip-path="url(#p1fff5618bb)" style="fill: none; stroke: #0f172a; stroke-opacity: 0.7; stroke-width: 0.4; stroke-linecap: square"/>
   </g>
   <g id="line2d_20">
    <path d="M 848.16 277.2 
L 848.16 0 
" clip-path="url(#p1fff5618bb)" style="fill: none; stroke: #0f172a; stroke-opacity: 0.7; stroke-width: 0.4; stroke-linecap: square"/>
   </g>
   <g id="line2d_21">
    <path d="M 0 277.2 
L 892.8 277.2 
" clip-path="url(#p1fff5618bb)" style="fill: none; stroke: #0f172a; stroke-opacity: 0.7; stroke-width: 0.4; stroke-linecap: square"/>
   </g>
   <g id="line2d_22">
    <path d="M 0 232.848 
L 892.8 232.848 
" clip-path="url(#p1fff5618bb)" style="fill: none; stroke: #0f172a; stroke-opacity: 0.7; stroke-width: 0.4; stroke-linecap: square"/>
   </g>
   <g id="line2d_23">
    <path d="M 0 188.496 
L 892.8 188.496 
" clip-path="url(#p1fff5618bb)" style="fill: none; stroke: #0f172a; stroke-opacity: 0.7; stroke-width: 0.4; stroke-linecap: square"/>
   </g>
   <g id="line2d_24">
    <path d="M 0 144.144 
L 892.8 144.144 
" clip-path="url(#p1fff5618bb)" style="fill: none; stroke: #0f172a; stroke-opacity: 0.7; stroke-width: 0.4; stroke-linecap: square"/>
   </g>
   <g id="line2d_25">
    <path d="M 0 99.792 
L 892.8 99.792 
" clip-path="url(#p1fff5618bb)" style="fill: none; stroke: #0f172a; stroke-opacity: 0.7; stroke-width: 0.4; stroke-linecap: square"/>
   </g>
   <g id="line2d_26">
    <path d="M 0 55.44 
L 892.8 55.44 
" clip-path="url(#p1fff5618bb)" style="fill: none; stroke: #0f172a; stroke-opacity: 0.7; stroke-width: 0.4; stroke-linecap: square"/>
   </g>
   <g id="line2d_27">
    <path d="M 0 11.088 
L 892.8 11.088 
" clip-path="url(#p1fff5618bb)" style="fill: none; stroke: #0f172a; stroke-opacity: 0.7; stroke-width: 0.4; stroke-linecap: square"/>
   </g>
   <g id="patch_2">
    <path d="M 44.64 210.672 
L 47.988 210.672 
L 47.988 66.528 
L 44.64 66.528 
z
" clip-path="url(#p1fff5618bb)" style="fill: #a3e635"/>
   </g>
   <g id="text_1">
    <!-- MEMORYPILOT  ·  v4.2 -->
    <g style="fill: #a3e635" transform="translate(66.96 66.528) scale(0.14 -0.14)">
     <defs>
      <path id="DejaVuSansMono-Bold-4d" d="M 269 4666 
L 1369 4666 
L 1925 2619 
L 2478 4666 
L 3584 4666 
L 3584 0 
L 2791 0 
L 2791 3738 
L 2297 1697 
L 1563 1697 
L 1063 3738 
L 1063 0 
L 269 0 
L 269 4666 
z
" transform="scale(0.015625)"/>
      <path id="DejaVuSansMono-Bold-45" d="M 3431 0 
L 525 0 
L 525 4666 
L 3431 4666 
L 3431 3853 
L 1447 3853 
L 1447 2847 
L 3244 2847 
L 3244 2034 
L 1447 2034 
L 1447 813 
L 3431 813 
L 3431 0 
z
" transform="scale(0.015625)"/>
      <path id="DejaVuSansMono-Bold-4f" d="M 1925 3922 
Q 1572 3922 1409 3545 
Q 1247 3169 1247 2328 
Q 1247 1491 1409 1114 
Q 1572 738 1925 738 
Q 2281 738 2443 1114 
Q 2606 1491 2606 2328 
Q 2606 3169 2443 3545 
Q 2281 3922 1925 3922 
z
M 288 2328 
Q 288 3525 702 4137 
Q 1116 4750 1925 4750 
Q 2738 4750 3152 4137 
Q 3566 3525 3566 2328 
Q 3566 1134 3152 521 
Q 2738 -91 1925 -91 
Q 1116 -91 702 521 
Q 288 1134 288 2328 
z
" transform="scale(0.015625)"/>
      <path id="DejaVuSansMono-Bold-52" d="M 2522 2203 
Q 2659 2175 2761 2073 
Q 2863 1972 3009 1678 
L 3853 0 
L 2841 0 
L 2278 1178 
Q 2253 1228 2213 1316 
Q 1966 1844 1631 1844 
L 1338 1844 
L 1338 0 
L 416 0 
L 416 4666 
L 1747 4666 
Q 2647 4666 3039 4347 
Q 3431 4028 3431 3309 
Q 3431 2828 3197 2543 
Q 2963 2259 2522 2203 
z
M 1338 3891 
L 1338 2619 
L 1772 2619 
Q 2150 2619 2314 2767 
Q 2478 2916 2478 3256 
Q 2478 3597 2315 3744 
Q 2153 3891 1772 3891 
L 1338 3891 
z
" transform="scale(0.015625)"/>
      <path id="DejaVuSansMono-Bold-59" d="M 25 4666 
L 1019 4666 
L 1925 2791 
L 2834 4666 
L 3828 4666 
L 2388 1838 
L 2388 0 
L 1466 0 
L 1466 1838 
L 25 4666 
z
" transform="scale(0.015625)"/>
      <path id="DejaVuSansMono-Bold-50" d="M 1428 3891 
L 1428 2522 
L 1806 2522 
Q 2259 2522 2442 2675 
Q 2625 2828 2625 3206 
Q 2625 3584 2442 3737 
Q 2259 3891 1806 3891 
L 1428 3891 
z
M 506 4666 
L 1772 4666 
Q 2738 4666 3161 4322 
Q 3584 3978 3584 3206 
Q 3584 2434 3161 2090 
Q 2738 1747 1772 1747 
L 1428 1747 
L 1428 0 
L 506 0 
L 506 4666 
z
" transform="scale(0.015625)"/>
      <path id="DejaVuSansMono-Bold-49" d="M 538 3853 
L 538 4666 
L 3316 4666 
L 3316 3853 
L 2388 3853 
L 2388 813 
L 3316 813 
L 3316 0 
L 538 0 
L 538 813 
L 1466 813 
L 1466 3853 
L 538 3853 
z
" transform="scale(0.015625)"/>
      <path id="DejaVuSansMono-Bold-4c" d="M 703 0 
L 703 4666 
L 1625 4666 
L 1625 813 
L 3597 813 
L 3597 0 
L 703 0 
z
" transform="scale(0.015625)"/>
      <path id="DejaVuSansMono-Bold-54" d="M 2388 0 
L 1466 0 
L 1466 3859 
L 281 3859 
L 281 4666 
L 3572 4666 
L 3572 3859 
L 2388 3859 
L 2388 0 
z
" transform="scale(0.015625)"/>
      <path id="DejaVuSansMono-Bold-20" transform="scale(0.015625)"/>
      <path id="DejaVuSansMono-Bold-b7" d="M 1403 2797 
L 2444 2797 
L 2444 1656 
L 1403 1656 
L 1403 2797 
z
" transform="scale(0.015625)"/>
      <path id="DejaVuSansMono-Bold-76" d="M 3603 3500 
L 2491 0 
L 1363 0 
L 250 3500 
L 1178 3500 
L 1925 769 
L 2675 3500 
L 3603 3500 
z
" transform="scale(0.015625)"/>
      <path id="DejaVuSansMono-Bold-34" d="M 2169 3641 
L 991 1797 
L 2169 1797 
L 2169 3641 
z
M 2088 4666 
L 3053 4666 
L 3053 1797 
L 3566 1797 
L 3566 1006 
L 3053 1006 
L 3053 0 
L 2169 0 
L 2169 1006 
L 319 1006 
L 319 1900 
L 2088 4666 
z
" transform="scale(0.015625)"/>
      <path id="DejaVuSansMono-Bold-2e" d="M 1403 1147 
L 2444 1147 
L 2444 0 
L 1403 0 
L 1403 1147 
z
" transform="scale(0.015625)"/>
      <path id="DejaVuSansMono-Bold-32" d="M 1356 813 
L 3322 813 
L 3322 0 
L 359 0 
L 359 788 
L 859 1319 
Q 1750 2266 1941 2484 
Q 2175 2753 2278 2961 
Q 2381 3169 2381 3372 
Q 2381 3684 2192 3854 
Q 2003 4025 1656 4025 
Q 1409 4025 1101 3926 
Q 794 3828 459 3641 
L 459 4500 
Q 794 4622 1114 4686 
Q 1434 4750 1728 4750 
Q 2469 4750 2892 4404 
Q 3316 4059 3316 3463 
Q 3316 3188 3223 2947 
Q 3131 2706 2906 2413 
Q 2741 2200 1997 1456 
Q 1594 1053 1356 813 
z
" transform="scale(0.015625)"/>
     </defs>
     <use xlink:href="#DejaVuSansMono-Bold-4d"/>
     <use xlink:href="#DejaVuSansMono-Bold-45" transform="translate(60.205078 0)"/>
     <use xlink:href="#DejaVuSansMono-Bold-4d" transform="translate(120.410156 0)"/>
     <use xlink:href="#DejaVuSansMono-Bold-4f" transform="translate(180.615234 0)"/>
     <use xlink:href="#DejaVuSansMono-Bold-52" transform="translate(240.820312 0)"/>
     <use xlink:href="#DejaVuSansMono-Bold-59" transform="translate(301.025391 0)"/>
     <use xlink:href="#DejaVuSansMono-Bold-50" transform="translate(361.230469 0)"/>
     <use xlink:href="#DejaVuSansMono-Bold-49" transform="translate(421.435547 0)"/>
     <use xlink:href="#DejaVuSansMono-Bold-4c" transform="translate(481.640625 0)"/>
     <use xlink:href="#DejaVuSansMono-Bold-4f" transform="translate(541.845703 0)"/>
     <use xlink:href="#DejaVuSansMono-Bold-54" transform="translate(602.050781 0)"/>
     <use xlink:href="#DejaVuSansMono-Bold-20" transform="translate(662.255859 0)"/>
     <use xlink:href="#DejaVuSansMono-Bold-20" transform="translate(722.460938 0)"/>
     <use xlink:href="#DejaVuSansMono-Bold-b7" transform="translate(782.666016 0)"/>
     <use xlink:href="#DejaVuSansMono-Bold-20" transform="translate(842.871094 0)"/>
     <use xlink:href="#DejaVuSansMono-Bold-20" transform="translate(903.076172 0)"/>
     <use xlink:href="#DejaVuSansMono-Bold-76" transform="translate(963.28125 0)"/>
     <use xlink:href="#DejaVuSansMono-Bold-34" transform="translate(1023.486328 0)"/>
     <use xlink:href="#DejaVuSansMono-Bold-2e" transform="translate(1083.691406 0)"/>
     <use xlink:href="#DejaVuSansMono-Bold-32" transform="translate(1143.896484 0)"/>
    </g>
   </g>
   <g id="text_2">
    <!-- The fastest local memory -->
    <g style="fill: #f8fafc" transform="translate(66.96 108.108) scale(0.58 -0.58)">
     <defs>
      <path id="Inter-Regular-54" d="M 306 4131 
L 306 4656 
L 3825 4656 
L 3825 4131 
L 2366 4131 
L 2366 0 
L 1772 0 
L 1772 4131 
L 306 4131 
z
" transform="scale(0.015625)"/>
      <path id="Inter-Regular-68" d="M 1056 2094 
L 1056 0 
L 494 0 
L 494 4656 
L 1056 4656 
L 1056 2888 
Q 1228 3238 1495 3388 
Q 1763 3538 2106 3538 
Q 2638 3538 2964 3209 
Q 3291 2881 3291 2219 
L 3291 0 
L 2725 0 
L 2725 2172 
Q 2725 2575 2514 2803 
Q 2303 3031 1938 3031 
Q 1559 3031 1307 2786 
Q 1056 2541 1056 2094 
z
" transform="scale(0.015625)"/>
      <path id="Inter-Regular-65" d="M 1963 -75 
Q 1456 -75 1089 150 
Q 722 375 523 778 
Q 325 1181 325 1719 
Q 325 2256 519 2665 
Q 713 3075 1067 3306 
Q 1422 3538 1897 3538 
Q 2175 3538 2445 3445 
Q 2716 3353 2936 3148 
Q 3156 2944 3287 2609 
Q 3419 2275 3419 1791 
L 3419 1556 
L 894 1556 
Q 916 1009 1208 717 
Q 1500 425 1966 425 
Q 2275 425 2498 561 
Q 2722 697 2819 963 
L 3363 813 
Q 3241 416 2870 170 
Q 2500 -75 1963 -75 
z
M 897 2031 
L 2847 2031 
Q 2806 2478 2567 2758 
Q 2328 3038 1897 3038 
Q 1597 3038 1380 2897 
Q 1163 2756 1038 2528 
Q 913 2300 897 2031 
z
" transform="scale(0.015625)"/>
      <path id="Inter-Regular-20" transform="scale(0.015625)"/>
      <path id="Inter-Regular-66" d="M 2119 3494 
L 2119 3013 
L 1313 3013 
L 1313 0 
L 750 0 
L 750 3013 
L 63 3013 
L 63 3494 
L 750 3494 
L 750 3959 
Q 750 4263 892 4466 
Q 1034 4669 1262 4772 
Q 1491 4875 1744 4875 
Q 1944 4875 2075 4842 
Q 2206 4809 2269 4781 
L 2113 4300 
Q 2069 4316 1998 4334 
Q 1928 4353 1809 4353 
Q 1550 4353 1431 4220 
Q 1313 4088 1313 3834 
L 1313 3494 
L 2119 3494 
z
" transform="scale(0.015625)"/>
      <path id="Inter-Regular-61" d="M 1472 -81 
Q 1141 -81 870 44 
Q 600 169 440 409 
Q 281 650 281 994 
Q 281 1294 400 1481 
Q 519 1669 717 1776 
Q 916 1884 1156 1937 
Q 1397 1991 1641 2022 
Q 1953 2063 2150 2084 
Q 2347 2106 2442 2159 
Q 2538 2213 2538 2341 
L 2538 2359 
Q 2538 2684 2353 2864 
Q 2169 3044 1806 3044 
Q 1428 3044 1215 2880 
Q 1003 2716 922 2531 
L 381 2709 
Q 516 3028 744 3208 
Q 972 3388 1247 3463 
Q 1522 3538 1791 3538 
Q 1966 3538 2189 3495 
Q 2413 3453 2620 3328 
Q 2828 3203 2964 2958 
Q 3100 2713 3100 2303 
L 3100 0 
L 2547 0 
L 2547 475 
L 2509 475 
Q 2450 353 2319 223 
Q 2188 94 1978 6 
Q 1769 -81 1472 -81 
z
M 1569 416 
Q 1881 416 2097 537 
Q 2313 659 2425 854 
Q 2538 1050 2538 1263 
L 2538 1747 
Q 2503 1706 2387 1673 
Q 2272 1641 2123 1616 
Q 1975 1591 1836 1573 
Q 1697 1556 1616 1547 
Q 1413 1522 1236 1461 
Q 1059 1400 953 1283 
Q 847 1166 847 966 
Q 847 694 1051 555 
Q 1256 416 1569 416 
z
" transform="scale(0.015625)"/>
      <path id="Inter-Regular-73" d="M 1681 -75 
Q 1144 -75 787 159 
Q 431 394 338 847 
L 872 975 
Q 947 688 1155 553 
Q 1363 419 1675 419 
Q 2041 419 2258 575 
Q 2475 731 2475 947 
Q 2475 1306 1963 1428 
L 1381 1566 
Q 444 1788 444 2519 
Q 444 2819 612 3048 
Q 781 3278 1073 3408 
Q 1366 3538 1738 3538 
Q 2278 3538 2576 3302 
Q 2875 3066 2994 2697 
L 2484 2566 
Q 2413 2753 2245 2906 
Q 2078 3059 1741 3059 
Q 1428 3059 1220 2915 
Q 1013 2772 1013 2553 
Q 1013 2359 1153 2242 
Q 1294 2125 1600 2053 
L 2128 1928 
Q 2603 1816 2831 1580 
Q 3059 1344 3059 984 
Q 3059 678 2886 439 
Q 2713 200 2402 62 
Q 2091 -75 1681 -75 
z
" transform="scale(0.015625)"/>
      <path id="Inter-Regular-74" d="M 1869 3494 
L 1869 3013 
L 1150 3013 
L 1150 906 
Q 1150 672 1245 564 
Q 1341 456 1563 456 
Q 1616 456 1698 468 
Q 1781 481 1850 494 
L 1966 19 
Q 1878 -13 1767 -28 
Q 1656 -44 1547 -44 
Q 1094 -44 841 195 
Q 588 434 588 863 
L 588 3013 
L 63 3013 
L 63 3494 
L 588 3494 
L 588 4325 
L 1150 4325 
L 1150 3494 
L 1869 3494 
z
" transform="scale(0.015625)"/>
      <path id="Inter-Regular-6c" d="M 1056 4656 
L 1056 0 
L 494 0 
L 494 4656 
L 1056 4656 
z
" transform="scale(0.015625)"/>
      <path id="Inter-Regular-6f" d="M 1916 -75 
Q 1441 -75 1083 150 
Q 725 375 525 781 
Q 325 1188 325 1725 
Q 325 2272 525 2680 
Q 725 3088 1083 3313 
Q 1441 3538 1916 3538 
Q 2394 3538 2753 3313 
Q 3113 3088 3313 2680 
Q 3513 2272 3513 1725 
Q 3513 1188 3313 781 
Q 3113 375 2753 150 
Q 2394 -75 1916 -75 
z
M 1916 428 
Q 2269 428 2497 609 
Q 2725 791 2834 1086 
Q 2944 1381 2944 1725 
Q 2944 2072 2834 2370 
Q 2725 2669 2497 2851 
Q 2269 3034 1916 3034 
Q 1566 3034 1341 2851 
Q 1116 2669 1006 2372 
Q 897 2075 897 1725 
Q 897 1381 1006 1086 
Q 1116 791 1341 609 
Q 1566 428 1916 428 
z
" transform="scale(0.015625)"/>
      <path id="Inter-Regular-63" d="M 1916 -75 
Q 1441 -75 1083 150 
Q 725 375 525 781 
Q 325 1188 325 1725 
Q 325 2272 525 2680 
Q 725 3088 1083 3313 
Q 1441 3538 1916 3538 
Q 2422 3538 2805 3283 
Q 3188 3028 3331 2572 
L 2791 2419 
Q 2713 2688 2486 2861 
Q 2259 3034 1916 3034 
Q 1566 3034 1341 2851 
Q 1116 2669 1006 2372 
Q 897 2075 897 1725 
Q 897 1381 1006 1086 
Q 1116 791 1341 609 
Q 1566 428 1916 428 
Q 2269 428 2498 608 
Q 2728 788 2806 1072 
L 3344 919 
Q 3203 453 2815 189 
Q 2428 -75 1916 -75 
z
" transform="scale(0.015625)"/>
      <path id="Inter-Regular-6d" d="M 494 0 
L 494 3494 
L 1041 3494 
L 1044 2853 
Q 1172 3206 1442 3381 
Q 1713 3556 2022 3556 
Q 2366 3556 2592 3361 
Q 2819 3166 2913 2844 
Q 3038 3175 3336 3365 
Q 3634 3556 4013 3556 
Q 4316 3556 4566 3425 
Q 4816 3294 4964 3028 
Q 5113 2763 5113 2356 
L 5113 0 
L 4550 0 
L 4550 2341 
Q 4550 2719 4337 2881 
Q 4125 3044 3844 3044 
Q 3491 3044 3287 2828 
Q 3084 2613 3084 2281 
L 3084 0 
L 2522 0 
L 2522 2397 
Q 2522 2688 2328 2866 
Q 2134 3044 1838 3044 
Q 1531 3044 1293 2831 
Q 1056 2619 1056 2200 
L 1056 0 
L 494 0 
z
" transform="scale(0.015625)"/>
      <path id="Inter-Regular-72" d="M 494 0 
L 494 3494 
L 1038 3494 
L 1038 2956 
L 1075 2956 
Q 1172 3222 1420 3383 
Q 1669 3544 1981 3544 
Q 2044 3544 2130 3541 
Q 2216 3538 2266 3534 
L 2266 2969 
Q 2241 2975 2141 2987 
Q 2041 3000 1928 3000 
Q 1550 3000 1303 2770 
Q 1056 2541 1056 2188 
L 1056 0 
L 494 0 
z
" transform="scale(0.015625)"/>
      <path id="Inter-Regular-79" d="M 438 -1266 
L 581 -778 
L 641 -794 
Q 900 -863 1087 -773 
Q 1275 -684 1403 -309 
L 1503 -19 
L 169 3494 
L 784 3494 
L 1528 1422 
Q 1609 1194 1673 969 
Q 1738 744 1797 525 
Q 1856 744 1920 969 
Q 1984 1194 2066 1422 
L 2816 3494 
L 3428 3494 
L 1894 -522 
Q 1734 -938 1478 -1134 
Q 1222 -1331 850 -1331 
Q 700 -1331 590 -1309 
Q 481 -1288 438 -1266 
z
" transform="scale(0.015625)"/>
     </defs>
     <use xlink:href="#Inter-Regular-54"/>
     <use xlink:href="#Inter-Regular-68" transform="translate(64.550781 0)"/>
     <use xlink:href="#Inter-Regular-65" transform="translate(123.681641 0)"/>
     <use xlink:href="#Inter-Regular-20" transform="translate(181.982422 0)"/>
     <use xlink:href="#Inter-Regular-66" transform="translate(210.107422 0)"/>
     <use xlink:href="#Inter-Regular-61" transform="translate(247.119141 0)"/>
     <use xlink:href="#Inter-Regular-73" transform="translate(303.271484 0)"/>
     <use xlink:href="#Inter-Regular-74" transform="translate(356.054688 0)"/>
     <use xlink:href="#Inter-Regular-65" transform="translate(388.769531 0)"/>
     <use xlink:href="#Inter-Regular-73" transform="translate(447.070312 0)"/>
     <use xlink:href="#Inter-Regular-74" transform="translate(499.853516 0)"/>
     <use xlink:href="#Inter-Regular-20" transform="translate(532.568359 0)"/>
     <use xlink:href="#Inter-Regular-6c" transform="translate(560.693359 0)"/>
     <use xlink:href="#Inter-Regular-6f" transform="translate(584.912109 0)"/>
     <use xlink:href="#Inter-Regular-63" transform="translate(644.873047 0)"/>
     <use xlink:href="#Inter-Regular-61" transform="translate(702.001953 0)"/>
     <use xlink:href="#Inter-Regular-6c" transform="translate(758.154297 0)"/>
     <use xlink:href="#Inter-Regular-20" transform="translate(782.373047 0)"/>
     <use xlink:href="#Inter-Regular-6d" transform="translate(810.498047 0)"/>
     <use xlink:href="#Inter-Regular-65" transform="translate(898.095703 0)"/>
     <use xlink:href="#Inter-Regular-6d" transform="translate(956.396484 0)"/>
     <use xlink:href="#Inter-Regular-6f" transform="translate(1043.994141 0)"/>
     <use xlink:href="#Inter-Regular-72" transform="translate(1103.955078 0)"/>
     <use xlink:href="#Inter-Regular-79" transform="translate(1141.601562 0)"/>
    </g>
   </g>
   <g id="text_3">
    <!-- layer for AI agents. -->
    <g style="fill: #a3e635" transform="translate(66.96 152.46) scale(0.58 -0.58)">
     <defs>
      <path id="Inter-Regular-41" d="M 163 0 
L 1853 4656 
L 2541 4656 
L 4253 0 
L 3628 0 
L 3163 1300 
L 1244 1300 
L 794 0 
L 163 0 
z
M 1425 1819 
L 2978 1819 
L 2641 2763 
Q 2556 2997 2450 3336 
Q 2344 3675 2194 4181 
Q 2047 3666 1937 3322 
Q 1828 2978 1753 2763 
L 1425 1819 
z
" transform="scale(0.015625)"/>
      <path id="Inter-Regular-49" d="M 1156 4656 
L 1156 0 
L 563 0 
L 563 4656 
L 1156 4656 
z
" transform="scale(0.015625)"/>
      <path id="Inter-Regular-67" d="M 1909 -1381 
Q 1328 -1381 981 -1168 
Q 634 -956 472 -669 
L 928 -375 
Q 1003 -475 1114 -597 
Q 1225 -719 1414 -805 
Q 1603 -891 1909 -891 
Q 2328 -891 2598 -691 
Q 2869 -491 2869 -59 
L 2869 641 
L 2816 641 
Q 2756 541 2648 403 
Q 2541 266 2339 161 
Q 2138 56 1800 56 
Q 1381 56 1047 254 
Q 713 453 519 834 
Q 325 1216 325 1763 
Q 325 2303 515 2701 
Q 706 3100 1042 3319 
Q 1378 3538 1813 3538 
Q 2150 3538 2351 3427 
Q 2553 3316 2662 3172 
Q 2772 3028 2831 2934 
L 2884 2934 
L 2884 3494 
L 3431 3494 
L 3431 -91 
Q 3431 -541 3228 -827 
Q 3025 -1113 2679 -1247 
Q 2334 -1381 1909 -1381 
z
M 1894 556 
Q 2369 556 2622 879 
Q 2875 1203 2875 1775 
Q 2875 2331 2626 2682 
Q 2378 3034 1894 3034 
Q 1563 3034 1341 2864 
Q 1119 2694 1008 2409 
Q 897 2125 897 1775 
Q 897 1238 1150 897 
Q 1403 556 1894 556 
z
" transform="scale(0.015625)"/>
      <path id="Inter-Regular-6e" d="M 1056 2094 
L 1056 0 
L 494 0 
L 494 3494 
L 1034 3494 
L 1038 2847 
Q 1206 3219 1479 3378 
Q 1753 3538 2106 3538 
Q 2638 3538 2963 3209 
Q 3288 2881 3288 2219 
L 3288 0 
L 2725 0 
L 2725 2172 
Q 2725 2575 2514 2803 
Q 2303 3031 1938 3031 
Q 1559 3031 1307 2786 
Q 1056 2541 1056 2094 
z
" transform="scale(0.015625)"/>
      <path id="Inter-Regular-2e" d="M 922 -41 
Q 747 -41 623 82 
Q 500 206 500 381 
Q 500 556 623 679 
Q 747 803 922 803 
Q 1097 803 1220 679 
Q 1344 556 1344 381 
Q 1344 206 1220 82 
Q 1097 -41 922 -41 
z
" transform="scale(0.015625)"/>
     </defs>
     <use xlink:href="#Inter-Regular-6c"/>
     <use xlink:href="#Inter-Regular-61" transform="translate(24.21875 0)"/>
     <use xlink:href="#Inter-Regular-79" transform="translate(80.371094 0)"/>
     <use xlink:href="#Inter-Regular-65" transform="translate(136.572266 0)"/>
     <use xlink:href="#Inter-Regular-72" transform="translate(194.873047 0)"/>
     <use xlink:href="#Inter-Regular-20" transform="translate(232.519531 0)"/>
     <use xlink:href="#Inter-Regular-66" transform="translate(260.644531 0)"/>
     <use xlink:href="#Inter-Regular-6f" transform="translate(297.65625 0)"/>
     <use xlink:href="#Inter-Regular-72" transform="translate(357.617188 0)"/>
     <use xlink:href="#Inter-Regular-20" transform="translate(395.263672 0)"/>
     <use xlink:href="#Inter-Regular-41" transform="translate(423.388672 0)"/>
     <use xlink:href="#Inter-Regular-49" transform="translate(492.382812 0)"/>
     <use xlink:href="#Inter-Regular-20" transform="translate(519.238281 0)"/>
     <use xlink:href="#Inter-Regular-61" transform="translate(547.363281 0)"/>
     <use xlink:href="#Inter-Regular-67" transform="translate(603.515625 0)"/>
     <use xlink:href="#Inter-Regular-65" transform="translate(664.84375 0)"/>
     <use xlink:href="#Inter-Regular-6e" transform="translate(723.144531 0)"/>
     <use xlink:href="#Inter-Regular-74" transform="translate(782.226562 0)"/>
     <use xlink:href="#Inter-Regular-73" transform="translate(814.941406 0)"/>
     <use xlink:href="#Inter-Regular-2e" transform="translate(867.724609 0)"/>
    </g>
   </g>
   <g id="text_4">
    <!-- Hybrid retrieval  ·  99.1% R@5 on LongMemEval-S  ·  35 MB Rust binary  ·  zero API calls -->
    <g style="fill: #94a3b8" transform="translate(66.96 188.496) scale(0.16 -0.16)">
     <defs>
      <path id="Inter-Regular-48" d="M 563 0 
L 563 4656 
L 1156 4656 
L 1156 2644 
L 3600 2644 
L 3600 4656 
L 4194 4656 
L 4194 0 
L 3600 0 
L 3600 2119 
L 1156 2119 
L 1156 0 
L 563 0 
z
" transform="scale(0.015625)"/>
      <path id="Inter-Regular-62" d="M 2116 -75 
Q 1784 -75 1581 39 
Q 1378 153 1268 298 
Q 1159 444 1100 541 
L 1038 541 
L 1038 0 
L 494 0 
L 494 4656 
L 1056 4656 
L 1056 2934 
L 1100 2934 
Q 1159 3028 1265 3170 
Q 1372 3313 1572 3425 
Q 1772 3538 2113 3538 
Q 2550 3538 2883 3319 
Q 3216 3100 3405 2695 
Q 3594 2291 3594 1738 
Q 3594 1181 3406 775 
Q 3219 369 2886 147 
Q 2553 -75 2116 -75 
z
M 2031 428 
Q 2359 428 2579 604 
Q 2800 781 2911 1079 
Q 3022 1378 3022 1744 
Q 3022 2106 2912 2398 
Q 2803 2691 2583 2862 
Q 2363 3034 2031 3034 
Q 1550 3034 1300 2678 
Q 1050 2322 1050 1744 
Q 1050 1159 1303 793 
Q 1556 428 2031 428 
z
" transform="scale(0.015625)"/>
      <path id="Inter-Regular-69" d="M 494 0 
L 494 3494 
L 1056 3494 
L 1056 0 
L 494 0 
z
M 780 4066 
Q 621 4066 505 4175 
Q 389 4284 389 4438 
Q 389 4594 505 4701 
Q 621 4809 780 4809 
Q 942 4809 1058 4701 
Q 1174 4594 1174 4438 
Q 1174 4284 1058 4175 
Q 942 4066 780 4066 
z
" transform="scale(0.015625)"/>
      <path id="Inter-Regular-64" d="M 1803 -75 
Q 1369 -75 1034 147 
Q 700 369 512 775 
Q 325 1181 325 1738 
Q 325 2291 514 2695 
Q 703 3100 1037 3319 
Q 1372 3538 1806 3538 
Q 2147 3538 2347 3425 
Q 2547 3313 2655 3170 
Q 2763 3028 2819 2934 
L 2863 2934 
L 2863 4656 
L 3425 4656 
L 3425 0 
L 2881 0 
L 2881 541 
L 2819 541 
Q 2763 444 2652 298 
Q 2541 153 2339 39 
Q 2138 -75 1803 -75 
z
M 1888 428 
Q 2363 428 2616 793 
Q 2869 1159 2869 1744 
Q 2869 2322 2620 2678 
Q 2372 3034 1888 3034 
Q 1556 3034 1336 2862 
Q 1116 2691 1006 2398 
Q 897 2106 897 1744 
Q 897 1378 1008 1079 
Q 1119 781 1341 604 
Q 1563 428 1888 428 
z
" transform="scale(0.015625)"/>
      <path id="Inter-Regular-76" d="M 1503 0 
L 169 3494 
L 784 3494 
L 1528 1422 
Q 1609 1194 1675 967 
Q 1741 741 1800 522 
Q 1859 741 1923 967 
Q 1988 1194 2069 1422 
L 2813 3494 
L 3428 3494 
L 2094 0 
L 1503 0 
z
" transform="scale(0.015625)"/>
      <path id="Inter-Regular-b7" d="M 922 1815 
Q 747 1815 623 1938 
Q 500 2062 500 2237 
Q 500 2412 623 2535 
Q 747 2659 922 2659 
Q 1097 2659 1220 2535 
Q 1344 2412 1344 2237 
Q 1344 2062 1220 1938 
Q 1097 1815 922 1815 
z
" transform="scale(0.015625)"/>
      <path id="Inter-Regular-39" d="M 1884 -63 
Q 1488 -63 1178 93 
Q 869 250 672 531 
Q 475 813 419 1184 
L 1006 1184 
Q 1078 875 1297 669 
Q 1516 463 1884 463 
Q 2416 463 2723 927 
Q 3031 1391 3031 2238 
L 2994 2238 
Q 2806 1953 2509 1784 
Q 2213 1616 1847 1616 
Q 1447 1616 1112 1814 
Q 778 2013 579 2361 
Q 381 2709 381 3156 
Q 381 3591 578 3948 
Q 775 4306 1129 4517 
Q 1484 4728 1963 4719 
Q 2250 4716 2537 4608 
Q 2825 4500 3062 4253 
Q 3300 4006 3444 3581 
Q 3588 3156 3588 2513 
Q 3588 1278 3131 607 
Q 2675 -63 1884 -63 
z
M 1934 2134 
Q 2219 2134 2447 2279 
Q 2675 2425 2811 2662 
Q 2947 2900 2947 3172 
Q 2947 3441 2817 3673 
Q 2688 3906 2464 4051 
Q 2241 4197 1953 4197 
Q 1672 4197 1448 4058 
Q 1225 3919 1094 3683 
Q 963 3447 963 3159 
Q 963 2875 1089 2642 
Q 1216 2409 1434 2271 
Q 1653 2134 1934 2134 
z
" transform="scale(0.015625)"/>
      <path id="Inter-Regular-31" d="M 2041 4656 
L 2041 0 
L 1456 0 
L 1456 4106 
L 1425 4106 
L 300 3272 
L 300 3909 
L 1313 4656 
L 2041 4656 
z
" transform="scale(0.015625)"/>
      <path id="Inter-Regular-25" d="M 4656 -91 
Q 4359 -91 4154 39 
Q 3950 169 3845 384 
Q 3741 600 3741 856 
L 3741 1100 
Q 3741 1356 3847 1570 
Q 3953 1784 4158 1914 
Q 4363 2044 4656 2044 
Q 4956 2044 5159 1914 
Q 5363 1784 5464 1570 
Q 5566 1356 5566 1100 
L 5566 856 
Q 5566 600 5461 384 
Q 5356 169 5154 39 
Q 4953 -91 4656 -91 
z
M 1634 2597 
Q 1338 2597 1133 2726 
Q 928 2856 823 3072 
Q 719 3288 719 3544 
L 719 3788 
Q 719 4044 825 4258 
Q 931 4472 1136 4601 
Q 1341 4731 1634 4731 
Q 1934 4731 2136 4601 
Q 2338 4472 2441 4258 
Q 2544 4044 2544 3788 
L 2544 3544 
Q 2544 3288 2439 3072 
Q 2334 2856 2132 2726 
Q 1931 2597 1634 2597 
z
M 1263 0 
L 4463 4656 
L 4991 4656 
L 1791 0 
L 1263 0 
z
M 4656 319 
Q 4894 319 4991 483 
Q 5088 647 5088 856 
L 5088 1100 
Q 5088 1306 4994 1472 
Q 4900 1638 4656 1638 
Q 4422 1638 4320 1472 
Q 4219 1306 4219 1100 
L 4219 856 
Q 4219 647 4317 483 
Q 4416 319 4656 319 
z
M 1634 3006 
Q 1872 3006 1969 3170 
Q 2066 3334 2066 3544 
L 2066 3788 
Q 2066 3994 1972 4159 
Q 1878 4325 1634 4325 
Q 1400 4325 1298 4159 
Q 1197 3994 1197 3788 
L 1197 3544 
Q 1197 3334 1295 3170 
Q 1394 3006 1634 3006 
z
" transform="scale(0.015625)"/>
      <path id="Inter-Regular-52" d="M 563 0 
L 563 4656 
L 2156 4656 
Q 2700 4656 3051 4470 
Q 3403 4284 3573 3959 
Q 3744 3634 3744 3219 
Q 3744 2756 3533 2412 
Q 3322 2069 2881 1916 
L 3925 0 
L 3238 0 
L 2269 1809 
Q 2216 1806 2159 1806 
L 1156 1806 
L 1156 0 
L 563 0 
z
M 1156 2334 
L 2131 2334 
Q 2681 2334 2917 2571 
Q 3153 2809 3153 3219 
Q 3153 3634 2917 3884 
Q 2681 4134 2125 4134 
L 1156 4134 
L 1156 2334 
z
" transform="scale(0.015625)"/>
      <path id="Inter-Regular-40" d="M 3263 -1234 
Q 1869 -1234 1125 -485 
Q 381 263 381 1641 
Q 381 2531 717 3170 
Q 1053 3809 1684 4151 
Q 2316 4494 3197 4494 
Q 3841 4494 4327 4286 
Q 4813 4078 5141 3723 
Q 5469 3369 5634 2922 
Q 5800 2475 5800 2000 
Q 5800 1666 5765 1330 
Q 5731 994 5623 714 
Q 5516 434 5302 264 
Q 5088 94 4725 94 
Q 4563 94 4372 144 
Q 4181 194 4036 309 
Q 3891 425 3863 619 
L 3838 619 
Q 3756 419 3547 267 
Q 3338 116 2984 116 
Q 2569 116 2289 322 
Q 2009 528 1867 879 
Q 1725 1231 1725 1672 
Q 1725 2091 1892 2422 
Q 2059 2753 2351 2945 
Q 2644 3138 3016 3138 
Q 3316 3138 3517 3028 
Q 3719 2919 3803 2800 
L 3834 2800 
L 3834 3063 
L 4328 3063 
L 4328 1003 
Q 4328 816 4433 675 
Q 4538 534 4738 534 
Q 5081 534 5192 889 
Q 5303 1244 5303 2006 
Q 5303 2394 5173 2758 
Q 5044 3122 4781 3412 
Q 4519 3703 4119 3873 
Q 3719 4044 3178 4044 
Q 2463 4044 1953 3755 
Q 1444 3466 1173 2925 
Q 903 2384 903 1625 
Q 903 472 1512 -154 
Q 2122 -781 3284 -781 
Q 3534 -781 3773 -734 
Q 4013 -688 4200 -630 
Q 4388 -572 4478 -541 
L 4613 -978 
Q 4469 -1038 4242 -1097 
Q 4016 -1156 3758 -1195 
Q 3500 -1234 3263 -1234 
z
M 3006 594 
Q 3459 594 3656 867 
Q 3853 1141 3853 1697 
Q 3853 2256 3642 2461 
Q 3431 2666 3022 2666 
Q 2766 2666 2584 2533 
Q 2403 2400 2306 2179 
Q 2209 1959 2209 1697 
Q 2209 1409 2287 1156 
Q 2366 903 2541 748 
Q 2716 594 3006 594 
z
" transform="scale(0.015625)"/>
      <path id="Inter-Regular-35" d="M 1863 -63 
Q 1453 -63 1128 98 
Q 803 259 609 539 
Q 416 819 400 1175 
L 975 1175 
Q 1003 863 1258 661 
Q 1513 459 1863 459 
Q 2144 459 2364 590 
Q 2584 722 2709 953 
Q 2834 1184 2834 1478 
Q 2834 1778 2703 2015 
Q 2572 2253 2345 2389 
Q 2119 2525 1825 2525 
Q 1609 2525 1387 2456 
Q 1166 2388 1028 2281 
L 472 2350 
L 747 4656 
L 3197 4656 
L 3197 4134 
L 1247 4134 
L 1088 2775 
L 1113 2775 
Q 1256 2894 1475 2970 
Q 1694 3047 1934 3047 
Q 2363 3047 2697 2845 
Q 3031 2644 3223 2291 
Q 3416 1938 3416 1488 
Q 3416 1041 3214 691 
Q 3013 341 2663 139 
Q 2313 -63 1863 -63 
z
" transform="scale(0.015625)"/>
      <path id="Inter-Regular-4c" d="M 563 0 
L 563 4656 
L 1156 4656 
L 1156 525 
L 3313 525 
L 3313 0 
L 563 0 
z
" transform="scale(0.015625)"/>
      <path id="Inter-Regular-4d" d="M 563 0 
L 563 4656 
L 1406 4656 
L 2553 1719 
Q 2619 1550 2716 1247 
Q 2813 944 2897 659 
Q 2978 934 3075 1239 
Q 3172 1544 3241 1719 
L 4372 4656 
L 5219 4656 
L 5219 0 
L 4634 0 
L 4634 2659 
Q 4634 2916 4640 3287 
Q 4647 3659 4656 4022 
Q 4528 3622 4398 3244 
Q 4269 2866 4188 2659 
L 3147 0 
L 2631 0 
L 1575 2659 
Q 1497 2856 1370 3229 
Q 1244 3603 1106 4013 
Q 1113 3681 1120 3304 
Q 1128 2928 1128 2659 
L 1128 0 
L 563 0 
z
" transform="scale(0.015625)"/>
      <path id="Inter-Regular-45" d="M 563 0 
L 563 4656 
L 3400 4656 
L 3400 4131 
L 1156 4131 
L 1156 2613 
L 3247 2613 
L 3247 2088 
L 1156 2088 
L 1156 525 
L 3428 525 
L 3428 0 
L 563 0 
z
" transform="scale(0.015625)"/>
      <path id="Inter-Regular-2d" d="M 2494 2247 
L 2494 1728 
L 450 1728 
L 450 2247 
L 2494 2247 
z
" transform="scale(0.015625)"/>
      <path id="Inter-Regular-53" d="M 2053 -81 
Q 1297 -81 850 276 
Q 403 634 363 1219 
L 972 1219 
Q 997 956 1150 786 
Q 1303 616 1542 533 
Q 1781 450 2053 450 
Q 2369 450 2620 553 
Q 2872 656 3019 843 
Q 3166 1031 3166 1278 
Q 3166 1503 3039 1643 
Q 2913 1784 2703 1875 
Q 2494 1966 2244 2034 
L 1681 2194 
Q 1119 2353 806 2650 
Q 494 2947 494 3409 
Q 494 3803 706 4098 
Q 919 4394 1281 4556 
Q 1644 4719 2094 4719 
Q 2553 4719 2906 4556 
Q 3259 4394 3464 4114 
Q 3669 3834 3681 3481 
L 3100 3481 
Q 3059 3822 2775 4008 
Q 2491 4194 2075 4194 
Q 1622 4194 1347 3980 
Q 1072 3766 1072 3438 
Q 1072 3194 1223 3045 
Q 1375 2897 1583 2814 
Q 1791 2731 1959 2684 
L 2425 2556 
Q 2613 2506 2839 2418 
Q 3066 2331 3272 2186 
Q 3478 2041 3611 1817 
Q 3744 1594 3744 1269 
Q 3744 888 3545 581 
Q 3347 275 2969 97 
Q 2591 -81 2053 -81 
z
" transform="scale(0.015625)"/>
      <path id="Inter-Regular-33" d="M 1984 -63 
Q 1528 -63 1175 93 
Q 822 250 614 528 
Q 406 806 391 1175 
L 991 1175 
Q 1016 844 1297 651 
Q 1578 459 1975 459 
Q 2413 459 2698 684 
Q 2984 909 2984 1272 
Q 2984 1650 2703 1889 
Q 2422 2128 1903 2128 
L 1525 2128 
L 1525 2644 
L 1903 2644 
Q 2313 2644 2567 2861 
Q 2822 3078 2822 3438 
Q 2822 3784 2597 3993 
Q 2372 4203 1991 4203 
Q 1753 4203 1545 4117 
Q 1338 4031 1205 3872 
Q 1072 3713 1063 3484 
L 491 3484 
Q 503 3850 709 4128 
Q 916 4406 1255 4562 
Q 1594 4719 2003 4719 
Q 2438 4719 2752 4544 
Q 3066 4369 3234 4084 
Q 3403 3800 3403 3469 
Q 3403 3075 3195 2800 
Q 2988 2525 2631 2419 
L 2631 2381 
Q 3078 2309 3325 2007 
Q 3572 1706 3572 1266 
Q 3572 884 3365 584 
Q 3159 284 2800 110 
Q 2441 -63 1984 -63 
z
" transform="scale(0.015625)"/>
      <path id="Inter-Regular-42" d="M 563 0 
L 563 4656 
L 2213 4656 
Q 2700 4656 3017 4489 
Q 3334 4322 3489 4042 
Q 3644 3763 3644 3422 
Q 3644 3122 3537 2926 
Q 3431 2731 3257 2615 
Q 3084 2500 2881 2444 
L 2881 2400 
Q 3100 2388 3317 2250 
Q 3534 2113 3679 1859 
Q 3825 1606 3825 1241 
Q 3825 891 3664 609 
Q 3503 328 3159 164 
Q 2816 0 2266 0 
L 563 0 
z
M 1156 525 
L 2250 525 
Q 2794 525 3023 734 
Q 3253 944 3253 1247 
Q 3253 1481 3134 1678 
Q 3016 1875 2798 1994 
Q 2581 2113 2281 2113 
L 1156 2113 
L 1156 525 
z
M 1156 2613 
L 2181 2613 
Q 2556 2613 2815 2831 
Q 3075 3050 3075 3409 
Q 3075 3713 2864 3922 
Q 2653 4131 2200 4131 
L 1156 4131 
L 1156 2613 
z
" transform="scale(0.015625)"/>
      <path id="Inter-Regular-75" d="M 1678 -44 
Q 1150 -44 822 284 
Q 494 613 494 1275 
L 494 3494 
L 1056 3494 
L 1056 1322 
Q 1056 919 1268 691 
Q 1481 463 1847 463 
Q 2222 463 2473 708 
Q 2725 953 2725 1400 
L 2725 3494 
L 3291 3494 
L 3291 0 
L 2747 0 
L 2747 653 
Q 2575 272 2298 114 
Q 2022 -44 1678 -44 
z
" transform="scale(0.015625)"/>
      <path id="Inter-Regular-7a" d="M 394 0 
L 394 419 
L 2353 2938 
L 2353 2972 
L 456 2972 
L 456 3494 
L 3078 3494 
L 3078 3047 
L 1175 556 
L 1175 522 
L 3141 522 
L 3141 0 
L 394 0 
z
" transform="scale(0.015625)"/>
      <path id="Inter-Regular-50" d="M 563 0 
L 563 4656 
L 2156 4656 
Q 2700 4656 3051 4457 
Q 3403 4259 3573 3925 
Q 3744 3591 3744 3175 
Q 3744 2759 3573 2421 
Q 3403 2084 3053 1884 
Q 2703 1684 2159 1684 
L 1156 1684 
L 1156 0 
L 563 0 
z
M 1156 2206 
L 2131 2206 
Q 2684 2206 2918 2482 
Q 3153 2759 3153 3175 
Q 3153 3588 2918 3861 
Q 2684 4134 2125 4134 
L 1156 4134 
L 1156 2206 
z
" transform="scale(0.015625)"/>
     </defs>
     <use xlink:href="#Inter-Regular-48"/>
     <use xlink:href="#Inter-Regular-79" transform="translate(74.316406 0)"/>
     <use xlink:href="#Inter-Regular-62" transform="translate(130.517578 0)"/>
     <use xlink:href="#Inter-Regular-72" transform="translate(191.748047 0)"/>
     <use xlink:href="#Inter-Regular-69" transform="translate(229.394531 0)"/>
     <use xlink:href="#Inter-Regular-64" transform="translate(253.613281 0)"/>
     <use xlink:href="#Inter-Regular-20" transform="translate(314.84375 0)"/>
     <use xlink:href="#Inter-Regular-72" transform="translate(342.96875 0)"/>
     <use xlink:href="#Inter-Regular-65" transform="translate(380.615234 0)"/>
     <use xlink:href="#Inter-Regular-74" transform="translate(438.916016 0)"/>
     <use xlink:href="#Inter-Regular-72" transform="translate(471.630859 0)"/>
     <use xlink:href="#Inter-Regular-69" transform="translate(509.277344 0)"/>
     <use xlink:href="#Inter-Regular-65" transform="translate(533.496094 0)"/>
     <use xlink:href="#Inter-Regular-76" transform="translate(591.796875 0)"/>
     <use xlink:href="#Inter-Regular-61" transform="translate(647.998047 0)"/>
     <use xlink:href="#Inter-Regular-6c" transform="translate(704.150391 0)"/>
     <use xlink:href="#Inter-Regular-20" transform="translate(728.369141 0)"/>
     <use xlink:href="#Inter-Regular-20" transform="translate(756.494141 0)"/>
     <use xlink:href="#Inter-Regular-b7" transform="translate(784.619141 0)"/>
     <use xlink:href="#Inter-Regular-20" transform="translate(813.427734 0)"/>
     <use xlink:href="#Inter-Regular-20" transform="translate(841.552734 0)"/>
     <use xlink:href="#Inter-Regular-39" transform="translate(869.677734 0)"/>
     <use xlink:href="#Inter-Regular-39" transform="translate(931.689453 0)"/>
     <use xlink:href="#Inter-Regular-2e" transform="translate(993.701172 0)"/>
     <use xlink:href="#Inter-Regular-31" transform="translate(1022.509766 0)"/>
     <use xlink:href="#Inter-Regular-25" transform="translate(1063.183594 0)"/>
     <use xlink:href="#Inter-Regular-20" transform="translate(1161.376953 0)"/>
     <use xlink:href="#Inter-Regular-52" transform="translate(1189.501953 0)"/>
     <use xlink:href="#Inter-Regular-40" transform="translate(1253.857422 0)"/>
     <use xlink:href="#Inter-Regular-35" transform="translate(1350.439453 0)"/>
     <use xlink:href="#Inter-Regular-20" transform="translate(1409.765625 0)"/>
     <use xlink:href="#Inter-Regular-6f" transform="translate(1437.890625 0)"/>
     <use xlink:href="#Inter-Regular-6e" transform="translate(1497.851562 0)"/>
     <use xlink:href="#Inter-Regular-20" transform="translate(1556.933594 0)"/>
     <use xlink:href="#Inter-Regular-4c" transform="translate(1585.058594 0)"/>
     <use xlink:href="#Inter-Regular-6f" transform="translate(1641.601562 0)"/>
     <use xlink:href="#Inter-Regular-6e" transform="translate(1701.5625 0)"/>
     <use xlink:href="#Inter-Regular-67" transform="translate(1760.644531 0)"/>
     <use xlink:href="#Inter-Regular-4d" transform="translate(1821.972656 0)"/>
     <use xlink:href="#Inter-Regular-65" transform="translate(1912.304688 0)"/>
     <use xlink:href="#Inter-Regular-6d" transform="translate(1970.605469 0)"/>
     <use xlink:href="#Inter-Regular-45" transform="translate(2058.203125 0)"/>
     <use xlink:href="#Inter-Regular-76" transform="translate(2118.310547 0)"/>
     <use xlink:href="#Inter-Regular-61" transform="translate(2174.511719 0)"/>
     <use xlink:href="#Inter-Regular-6c" transform="translate(2230.664062 0)"/>
     <use xlink:href="#Inter-Regular-2d" transform="translate(2254.882812 0)"/>
     <use xlink:href="#Inter-Regular-53" transform="translate(2300.878906 0)"/>
     <use xlink:href="#Inter-Regular-20" transform="translate(2365.039062 0)"/>
     <use xlink:href="#Inter-Regular-20" transform="translate(2393.164062 0)"/>
     <use xlink:href="#Inter-Regular-b7" transform="translate(2421.289062 0)"/>
     <use xlink:href="#Inter-Regular-20" transform="translate(2450.097656 0)"/>
     <use xlink:href="#Inter-Regular-20" transform="translate(2478.222656 0)"/>
     <use xlink:href="#Inter-Regular-33" transform="translate(2506.347656 0)"/>
     <use xlink:href="#Inter-Regular-35" transform="translate(2568.115234 0)"/>
     <use xlink:href="#Inter-Regular-20" transform="translate(2627.441406 0)"/>
     <use xlink:href="#Inter-Regular-4d" transform="translate(2655.566406 0)"/>
     <use xlink:href="#Inter-Regular-42" transform="translate(2745.898438 0)"/>
     <use xlink:href="#Inter-Regular-20" transform="translate(2811.328125 0)"/>
     <use xlink:href="#Inter-Regular-52" transform="translate(2839.453125 0)"/>
     <use xlink:href="#Inter-Regular-75" transform="translate(2903.808594 0)"/>
     <use xlink:href="#Inter-Regular-73" transform="translate(2962.939453 0)"/>
     <use xlink:href="#Inter-Regular-74" transform="translate(3015.722656 0)"/>
     <use xlink:href="#Inter-Regular-20" transform="translate(3048.4375 0)"/>
     <use xlink:href="#Inter-Regular-62" transform="translate(3076.5625 0)"/>
     <use xlink:href="#Inter-Regular-69" transform="translate(3137.792969 0)"/>
     <use xlink:href="#Inter-Regular-6e" transform="translate(3162.011719 0)"/>
     <use xlink:href="#Inter-Regular-61" transform="translate(3221.09375 0)"/>
     <use xlink:href="#Inter-Regular-72" transform="translate(3277.246094 0)"/>
     <use xlink:href="#Inter-Regular-79" transform="translate(3314.892578 0)"/>
     <use xlink:href="#Inter-Regular-20" transform="translate(3371.09375 0)"/>
     <use xlink:href="#Inter-Regular-20" transform="translate(3399.21875 0)"/>
     <use xlink:href="#Inter-Regular-b7" transform="translate(3427.34375 0)"/>
     <use xlink:href="#Inter-Regular-20" transform="translate(3456.152344 0)"/>
     <use xlink:href="#Inter-Regular-20" transform="translate(3484.277344 0)"/>
     <use xlink:href="#Inter-Regular-7a" transform="translate(3512.402344 0)"/>
     <use xlink:href="#Inter-Regular-65" transform="translate(3567.626953 0)"/>
     <use xlink:href="#Inter-Regular-72" transform="translate(3625.927734 0)"/>
     <use xlink:href="#Inter-Regular-6f" transform="translate(3663.574219 0)"/>
     <use xlink:href="#Inter-Regular-20" transform="translate(3723.535156 0)"/>
     <use xlink:href="#Inter-Regular-41" transform="translate(3751.660156 0)"/>
     <use xlink:href="#Inter-Regular-50" transform="translate(3820.654297 0)"/>
     <use xlink:href="#Inter-Regular-49" transform="translate(3884.521484 0)"/>
     <use xlink:href="#Inter-Regular-20" transform="translate(3911.376953 0)"/>
     <use xlink:href="#Inter-Regular-63" transform="translate(3939.501953 0)"/>
     <use xlink:href="#Inter-Regular-61" transform="translate(3996.630859 0)"/>
     <use xlink:href="#Inter-Regular-6c" transform="translate(4052.783203 0)"/>
     <use xlink:href="#Inter-Regular-6c" transform="translate(4077.001953 0)"/>
     <use xlink:href="#Inter-Regular-73" transform="translate(4101.220703 0)"/>
    </g>
   </g>
   <g id="text_5">
    <!-- 99.1% -->
    <g style="fill: #f8fafc" transform="translate(66.96 224.532) scale(0.22 -0.22)">
     <use xlink:href="#Inter-Regular-39"/>
     <use xlink:href="#Inter-Regular-39" transform="translate(62.011719 0)"/>
     <use xlink:href="#Inter-Regular-2e" transform="translate(124.023438 0)"/>
     <use xlink:href="#Inter-Regular-31" transform="translate(152.832031 0)"/>
     <use xlink:href="#Inter-Regular-25" transform="translate(193.505859 0)"/>
    </g>
   </g>
   <g id="text_6">
    <!-- R@5 LongMemEval -->
    <g style="fill: #64748b" transform="translate(66.96 241.164) scale(0.11 -0.11)">
     <use xlink:href="#Inter-Regular-52"/>
     <use xlink:href="#Inter-Regular-40" transform="translate(64.355469 0)"/>
     <use xlink:href="#Inter-Regular-35" transform="translate(160.9375 0)"/>
     <use xlink:href="#Inter-Regular-20" transform="translate(220.263672 0)"/>
     <use xlink:href="#Inter-Regular-4c" transform="translate(248.388672 0)"/>
     <use xlink:href="#Inter-Regular-6f" transform="translate(304.931641 0)"/>
     <use xlink:href="#Inter-Regular-6e" transform="translate(364.892578 0)"/>
     <use xlink:href="#Inter-Regular-67" transform="translate(423.974609 0)"/>
     <use xlink:href="#Inter-Regular-4d" transform="translate(485.302734 0)"/>
     <use xlink:href="#Inter-Regular-65" transform="translate(575.634766 0)"/>
     <use xlink:href="#Inter-Regular-6d" transform="translate(633.935547 0)"/>
     <use xlink:href="#Inter-Regular-45" transform="translate(721.533203 0)"/>
     <use xlink:href="#Inter-Regular-76" transform="translate(781.640625 0)"/>
     <use xlink:href="#Inter-Regular-61" transform="translate(837.841797 0)"/>
     <use xlink:href="#Inter-Regular-6c" transform="translate(893.994141 0)"/>
    </g>
   </g>
   <g id="text_7">
    <!-- ~28 ms -->
    <g style="fill: #f8fafc" transform="translate(206.46 224.532) scale(0.22 -0.22)">
     <defs>
      <path id="Inter-Regular-7e" d="M 525 1372 
Q 519 1759 648 1993 
Q 778 2228 989 2333 
Q 1200 2438 1431 2438 
Q 1663 2438 1853 2341 
Q 2044 2244 2297 2022 
Q 2463 1878 2563 1818 
Q 2663 1759 2781 1759 
Q 2975 1759 3086 1900 
Q 3197 2041 3197 2313 
L 3709 2313 
Q 3716 1928 3584 1693 
Q 3453 1459 3243 1354 
Q 3034 1250 2803 1250 
Q 2566 1250 2372 1351 
Q 2178 1453 1938 1663 
Q 1769 1809 1670 1867 
Q 1572 1925 1453 1925 
Q 1272 1925 1153 1797 
Q 1034 1669 1038 1372 
L 525 1372 
z
" transform="scale(0.015625)"/>
      <path id="Inter-Regular-32" d="M 481 0 
L 481 428 
L 2028 2106 
Q 2288 2388 2459 2600 
Q 2631 2813 2718 3005 
Q 2806 3197 2806 3413 
Q 2806 3778 2554 3990 
Q 2303 4203 1931 4203 
Q 1534 4203 1298 3965 
Q 1063 3728 1063 3334 
L 494 3334 
Q 494 3747 684 4059 
Q 875 4372 1203 4545 
Q 1531 4719 1947 4719 
Q 2363 4719 2683 4545 
Q 3003 4372 3186 4078 
Q 3369 3784 3369 3419 
Q 3369 3166 3278 2927 
Q 3188 2688 2959 2384 
Q 2731 2081 2319 1644 
L 1300 559 
L 1300 522 
L 3447 522 
L 3447 0 
L 481 0 
z
" transform="scale(0.015625)"/>
      <path id="Inter-Regular-38" d="M 1978 -63 
Q 1506 -63 1145 104 
Q 784 272 582 565 
Q 381 859 381 1238 
Q 381 1531 500 1782 
Q 619 2034 825 2203 
Q 1031 2372 1291 2419 
L 1291 2444 
Q 950 2531 750 2822 
Q 550 3113 550 3481 
Q 550 3838 734 4117 
Q 919 4397 1241 4558 
Q 1563 4719 1978 4719 
Q 2388 4719 2709 4558 
Q 3031 4397 3217 4117 
Q 3403 3838 3403 3481 
Q 3403 3113 3201 2822 
Q 3000 2531 2669 2444 
L 2669 2419 
Q 2922 2372 3128 2203 
Q 3334 2034 3456 1782 
Q 3578 1531 3578 1238 
Q 3578 859 3373 565 
Q 3169 272 2808 104 
Q 2447 -63 1978 -63 
z
M 1978 453 
Q 2441 453 2712 676 
Q 2984 900 2984 1269 
Q 2984 1528 2853 1726 
Q 2722 1925 2494 2039 
Q 2266 2153 1978 2153 
Q 1538 2153 1252 1904 
Q 966 1656 966 1269 
Q 966 900 1236 676 
Q 1506 453 1978 453 
z
M 1978 2650 
Q 2347 2650 2587 2867 
Q 2828 3084 2828 3438 
Q 2828 3788 2593 3997 
Q 2359 4206 1978 4206 
Q 1591 4206 1358 3997 
Q 1125 3788 1125 3438 
Q 1125 3084 1362 2867 
Q 1600 2650 1978 2650 
z
" transform="scale(0.015625)"/>
     </defs>
     <use xlink:href="#Inter-Regular-7e"/>
     <use xlink:href="#Inter-Regular-32" transform="translate(66.162109 0)"/>
     <use xlink:href="#Inter-Regular-38" transform="translate(127.148438 0)"/>
     <use xlink:href="#Inter-Regular-20" transform="translate(189.013672 0)"/>
     <use xlink:href="#Inter-Regular-6d" transform="translate(217.138672 0)"/>
     <use xlink:href="#Inter-Regular-73" transform="translate(304.736328 0)"/>
    </g>
   </g>
   <g id="text_8">
    <!-- p50 search -->
    <g style="fill: #64748b" transform="translate(206.46 241.164) scale(0.11 -0.11)">
     <defs>
      <path id="Inter-Regular-70" d="M 494 -1306 
L 494 3494 
L 1038 3494 
L 1038 2934 
L 1100 2934 
Q 1159 3028 1265 3170 
Q 1372 3313 1572 3425 
Q 1772 3538 2113 3538 
Q 2550 3538 2883 3319 
Q 3216 3100 3405 2695 
Q 3594 2291 3594 1738 
Q 3594 1181 3406 775 
Q 3219 369 2886 147 
Q 2553 -75 2116 -75 
Q 1784 -75 1581 39 
Q 1378 153 1268 298 
Q 1159 444 1100 541 
L 1056 541 
L 1056 -1306 
L 494 -1306 
z
M 2031 428 
Q 2359 428 2579 604 
Q 2800 781 2911 1079 
Q 3022 1378 3022 1744 
Q 3022 2106 2912 2398 
Q 2803 2691 2583 2862 
Q 2363 3034 2031 3034 
Q 1550 3034 1300 2678 
Q 1050 2322 1050 1744 
Q 1050 1159 1303 793 
Q 1556 428 2031 428 
z
" transform="scale(0.015625)"/>
      <path id="Inter-Regular-30" d="M 2019 -63 
Q 1241 -63 811 562 
Q 381 1188 381 2325 
Q 381 3456 814 4087 
Q 1247 4719 2019 4719 
Q 2794 4719 3225 4087 
Q 3656 3456 3656 2325 
Q 3656 1188 3228 562 
Q 2800 -63 2019 -63 
z
M 2019 456 
Q 2531 456 2807 948 
Q 3084 1441 3084 2325 
Q 3084 3216 2807 3709 
Q 2531 4203 2019 4203 
Q 1509 4203 1231 3708 
Q 953 3213 953 2325 
Q 953 1441 1231 948 
Q 1509 456 2019 456 
z
" transform="scale(0.015625)"/>
     </defs>
     <use xlink:href="#Inter-Regular-70"/>
     <use xlink:href="#Inter-Regular-35" transform="translate(61.230469 0)"/>
     <use xlink:href="#Inter-Regular-30" transform="translate(120.556641 0)"/>
     <use xlink:href="#Inter-Regular-20" transform="translate(183.642578 0)"/>
     <use xlink:href="#Inter-Regular-73" transform="translate(211.767578 0)"/>
     <use xlink:href="#Inter-Regular-65" transform="translate(264.550781 0)"/>
     <use xlink:href="#Inter-Regular-61" transform="translate(322.851562 0)"/>
     <use xlink:href="#Inter-Regular-72" transform="translate(379.003906 0)"/>
     <use xlink:href="#Inter-Regular-63" transform="translate(416.650391 0)"/>
     <use xlink:href="#Inter-Regular-68" transform="translate(473.779297 0)"/>
    </g>
   </g>
   <g id="text_9">
    <!-- 100+ -->
    <g style="fill: #f8fafc" transform="translate(345.96 224.532) scale(0.22 -0.22)">
     <defs>
      <path id="Inter-Regular-2b" d="M 1853 313 
L 1853 1575 
L 609 1575 
L 609 2072 
L 1853 2072 
L 1853 3331 
L 2381 3331 
L 2381 2072 
L 3625 2072 
L 3625 1575 
L 2381 1575 
L 2381 313 
L 1853 313 
z
" transform="scale(0.015625)"/>
     </defs>
     <use xlink:href="#Inter-Regular-31"/>
     <use xlink:href="#Inter-Regular-30" transform="translate(40.673828 0)"/>
     <use xlink:href="#Inter-Regular-30" transform="translate(103.759766 0)"/>
     <use xlink:href="#Inter-Regular-2b" transform="translate(166.845703 0)"/>
    </g>
   </g>
   <g id="text_10">
    <!-- languages -->
    <g style="fill: #64748b" transform="translate(345.96 241.164) scale(0.11 -0.11)">
     <use xlink:href="#Inter-Regular-6c"/>
     <use xlink:href="#Inter-Regular-61" transform="translate(24.21875 0)"/>
     <use xlink:href="#Inter-Regular-6e" transform="translate(80.371094 0)"/>
     <use xlink:href="#Inter-Regular-67" transform="translate(139.453125 0)"/>
     <use xlink:href="#Inter-Regular-75" transform="translate(200.78125 0)"/>
     <use xlink:href="#Inter-Regular-61" transform="translate(259.912109 0)"/>
     <use xlink:href="#Inter-Regular-67" transform="translate(316.064453 0)"/>
     <use xlink:href="#Inter-Regular-65" transform="translate(377.392578 0)"/>
     <use xlink:href="#Inter-Regular-73" transform="translate(435.693359 0)"/>
    </g>
   </g>
   <g id="text_11">
    <!-- 35 MB -->
    <g style="fill: #f8fafc" transform="translate(485.46 224.532) scale(0.22 -0.22)">
     <use xlink:href="#Inter-Regular-33"/>
     <use xlink:href="#Inter-Regular-35" transform="translate(61.767578 0)"/>
     <use xlink:href="#Inter-Regular-20" transform="translate(121.09375 0)"/>
     <use xlink:href="#Inter-Regular-4d" transform="translate(149.21875 0)"/>
     <use xlink:href="#Inter-Regular-42" transform="translate(239.550781 0)"/>
    </g>
   </g>
   <g id="text_12">
    <!-- single binary -->
    <g style="fill: #64748b" transform="translate(485.46 241.164) scale(0.11 -0.11)">
     <use xlink:href="#Inter-Regular-73"/>
     <use xlink:href="#Inter-Regular-69" transform="translate(52.783203 0)"/>
     <use xlink:href="#Inter-Regular-6e" transform="translate(77.001953 0)"/>
     <use xlink:href="#Inter-Regular-67" transform="translate(136.083984 0)"/>
     <use xlink:href="#Inter-Regular-6c" transform="translate(197.412109 0)"/>
     <use xlink:href="#Inter-Regular-65" transform="translate(221.630859 0)"/>
     <use xlink:href="#Inter-Regular-20" transform="translate(279.931641 0)"/>
     <use xlink:href="#Inter-Regular-62" transform="translate(308.056641 0)"/>
     <use xlink:href="#Inter-Regular-69" transform="translate(369.287109 0)"/>
     <use xlink:href="#Inter-Regular-6e" transform="translate(393.505859 0)"/>
     <use xlink:href="#Inter-Regular-61" transform="translate(452.587891 0)"/>
     <use xlink:href="#Inter-Regular-72" transform="translate(508.740234 0)"/>
     <use xlink:href="#Inter-Regular-79" transform="translate(546.386719 0)"/>
    </g>
   </g>
   <g id="text_13">
    <!-- 0 -->
    <g style="fill: #f8fafc" transform="translate(624.96 224.532) scale(0.22 -0.22)">
     <use xlink:href="#Inter-Regular-30"/>
    </g>
   </g>
   <g id="text_14">
    <!-- API calls -->
    <g style="fill: #64748b" transform="translate(624.96 241.164) scale(0.11 -0.11)">
     <use xlink:href="#Inter-Regular-41"/>
     <use xlink:href="#Inter-Regular-50" transform="translate(68.994141 0)"/>
     <use xlink:href="#Inter-Regular-49" transform="translate(132.861328 0)"/>
     <use xlink:href="#Inter-Regular-20" transform="translate(159.716797 0)"/>
     <use xlink:href="#Inter-Regular-63" transform="translate(187.841797 0)"/>
     <use xlink:href="#Inter-Regular-61" transform="translate(244.970703 0)"/>
     <use xlink:href="#Inter-Regular-6c" transform="translate(301.123047 0)"/>
     <use xlink:href="#Inter-Regular-6c" transform="translate(325.341797 0)"/>
     <use xlink:href="#Inter-Regular-73" transform="translate(349.560547 0)"/>
    </g>
   </g>
  </g>
 </g>
 <defs>
  <clipPath id="p1fff5618bb">
   <rect x="0" y="0" width="892.8" height="277.2"/>
  </clipPath>
 </defs>
</svg>
