<?xml version="1.0" encoding="utf-8" standalone="no"?>
<!DOCTYPE svg PUBLIC "-//W3C//DTD SVG 1.1//EN"
  "http://www.w3.org/Graphics/SVG/1.1/DTD/svg11.dtd">
<svg xmlns:xlink="http://www.w3.org/1999/xlink" width="823.32pt" height="381.59825pt" viewBox="0 0 823.32 381.59825" xmlns="http://www.w3.org/2000/svg" version="1.1">
 <metadata>
  <rdf:RDF xmlns:dc="http://purl.org/dc/elements/1.1/" xmlns:cc="http://creativecommons.org/ns#" xmlns:rdf="http://www.w3.org/1999/02/22-rdf-syntax-ns#">
   <cc:Work>
    <dc:type rdf:resource="http://purl.org/dc/dcmitype/StillImage"/>
    <dc:date>2026-05-16T02:28:50.243371</dc:date>
    <dc:format>image/svg+xml</dc:format>
    <dc:creator>
     <cc:Agent>
      <dc:title>Matplotlib v3.10.8, https://matplotlib.org/</dc:title>
     </cc:Agent>
    </dc:creator>
   </cc:Work>
  </rdf:RDF>
 </metadata>
 <defs>
  <style type="text/css">*{stroke-linejoin: round; stroke-linecap: butt}</style>
 </defs>
 <g id="figure_1">
  <g id="patch_1">
   <path d="M 0 381.59825 
L 823.32 381.59825 
L 823.32 0 
L 0 0 
z
" style="fill: #fafaf9"/>
  </g>
  <g id="axes_1">
   <g id="patch_2">
    <path d="M 201.095 332.848 
L 816.12 332.848 
L 816.12 87.222375 
L 201.095 87.222375 
z
" style="fill: #fafaf9"/>
   </g>
   <g id="matplotlib.axis_1">
    <g id="xtick_1">
     <g id="line2d_1">
      <path d="M 201.095 332.848 
L 201.095 87.222375 
" clip-path="url(#p989416e4fa)" style="fill: none; stroke: #e2e8f0; stroke-width: 0.8; stroke-linecap: square"/>
     </g>
     <g id="line2d_2"/>
     <g id="text_1">
      <!-- 0% -->
      <g style="fill: #64748b" transform="translate(193.030937 348.123) scale(0.1 -0.1)">
       <defs>
        <path id="Inter-Regular-30" d="M 2019 -63 
Q 1241 -63 811 562 
Q 381 1188 381 2325 
Q 381 3456 814 4087 
Q 1247 4719 2019 4719 
Q 2794 4719 3225 4087 
Q 3656 3456 3656 2325 
Q 3656 1188 3228 562 
Q 2800 -63 2019 -63 
z
M 2019 456 
Q 2531 456 2807 948 
Q 3084 1441 3084 2325 
Q 3084 3216 2807 3709 
Q 2531 4203 2019 4203 
Q 1509 4203 1231 3708 
Q 953 3213 953 2325 
Q 953 1441 1231 948 
Q 1509 456 2019 456 
z
" transform="scale(0.015625)"/>
        <path id="Inter-Regular-25" d="M 4656 -91 
Q 4359 -91 4154 39 
Q 3950 169 3845 384 
Q 3741 600 3741 856 
L 3741 1100 
Q 3741 1356 3847 1570 
Q 3953 1784 4158 1914 
Q 4363 2044 4656 2044 
Q 4956 2044 5159 1914 
Q 5363 1784 5464 1570 
Q 5566 1356 5566 1100 
L 5566 856 
Q 5566 600 5461 384 
Q 5356 169 5154 39 
Q 4953 -91 4656 -91 
z
M 1634 2597 
Q 1338 2597 1133 2726 
Q 928 2856 823 3072 
Q 719 3288 719 3544 
L 719 3788 
Q 719 4044 825 4258 
Q 931 4472 1136 4601 
Q 1341 4731 1634 4731 
Q 1934 4731 2136 4601 
Q 2338 4472 2441 4258 
Q 2544 4044 2544 3788 
L 2544 3544 
Q 2544 3288 2439 3072 
Q 2334 2856 2132 2726 
Q 1931 2597 1634 2597 
z
M 1263 0 
L 4463 4656 
L 4991 4656 
L 1791 0 
L 1263 0 
z
M 4656 319 
Q 4894 319 4991 483 
Q 5088 647 5088 856 
L 5088 1100 
Q 5088 1306 4994 1472 
Q 4900 1638 4656 1638 
Q 4422 1638 4320 1472 
Q 4219 1306 4219 1100 
L 4219 856 
Q 4219 647 4317 483 
Q 4416 319 4656 319 
z
M 1634 3006 
Q 1872 3006 1969 3170 
Q 2066 3334 2066 3544 
L 2066 3788 
Q 2066 3994 1972 4159 
Q 1878 4325 1634 4325 
Q 1400 4325 1298 4159 
Q 1197 3994 1197 3788 
L 1197 3544 
Q 1197 3334 1295 3170 
Q 1394 3006 1634 3006 
z
" transform="scale(0.015625)"/>
       </defs>
       <use xlink:href="#Inter-Regular-30"/>
       <use xlink:href="#Inter-Regular-25" transform="translate(63.085938 0)"/>
      </g>
     </g>
    </g>
    <g id="xtick_2">
     <g id="line2d_3">
      <path d="M 340.873409 332.848 
L 340.873409 87.222375 
" clip-path="url(#p989416e4fa)" style="fill: none; stroke: #e2e8f0; stroke-width: 0.8; stroke-linecap: square"/>
     </g>
     <g id="line2d_4"/>
     <g id="text_2">
      <!-- 25% -->
      <g style="fill: #64748b" transform="translate(329.948409 348.123) scale(0.1 -0.1)">
       <defs>
        <path id="Inter-Regular-32" d="M 481 0 
L 481 428 
L 2028 2106 
Q 2288 2388 2459 2600 
Q 2631 2813 2718 3005 
Q 2806 3197 2806 3413 
Q 2806 3778 2554 3990 
Q 2303 4203 1931 4203 
Q 1534 4203 1298 3965 
Q 1063 3728 1063 3334 
L 494 3334 
Q 494 3747 684 4059 
Q 875 4372 1203 4545 
Q 1531 4719 1947 4719 
Q 2363 4719 2683 4545 
Q 3003 4372 3186 4078 
Q 3369 3784 3369 3419 
Q 3369 3166 3278 2927 
Q 3188 2688 2959 2384 
Q 2731 2081 2319 1644 
L 1300 559 
L 1300 522 
L 3447 522 
L 3447 0 
L 481 0 
z
" transform="scale(0.015625)"/>
        <path id="Inter-Regular-35" d="M 1863 -63 
Q 1453 -63 1128 98 
Q 803 259 609 539 
Q 416 819 400 1175 
L 975 1175 
Q 1003 863 1258 661 
Q 1513 459 1863 459 
Q 2144 459 2364 590 
Q 2584 722 2709 953 
Q 2834 1184 2834 1478 
Q 2834 1778 2703 2015 
Q 2572 2253 2345 2389 
Q 2119 2525 1825 2525 
Q 1609 2525 1387 2456 
Q 1166 2388 1028 2281 
L 472 2350 
L 747 4656 
L 3197 4656 
L 3197 4134 
L 1247 4134 
L 1088 2775 
L 1113 2775 
Q 1256 2894 1475 2970 
Q 1694 3047 1934 3047 
Q 2363 3047 2697 2845 
Q 3031 2644 3223 2291 
Q 3416 1938 3416 1488 
Q 3416 1041 3214 691 
Q 3013 341 2663 139 
Q 2313 -63 1863 -63 
z
" transform="scale(0.015625)"/>
       </defs>
       <use xlink:href="#Inter-Regular-32"/>
       <use xlink:href="#Inter-Regular-35" transform="translate(60.986328 0)"/>
       <use xlink:href="#Inter-Regular-25" transform="translate(120.3125 0)"/>
      </g>
     </g>
    </g>
    <g id="xtick_3">
     <g id="line2d_5">
      <path d="M 480.651818 332.848 
L 480.651818 87.222375 
" clip-path="url(#p989416e4fa)" style="fill: none; stroke: #e2e8f0; stroke-width: 0.8; stroke-linecap: square"/>
     </g>
     <g id="line2d_6"/>
     <g id="text_3">
      <!-- 50% -->
      <g style="fill: #64748b" transform="translate(469.621349 348.123) scale(0.1 -0.1)">
       <use xlink:href="#Inter-Regular-35"/>
       <use xlink:href="#Inter-Regular-30" transform="translate(59.326172 0)"/>
       <use xlink:href="#Inter-Regular-25" transform="translate(122.412109 0)"/>
      </g>
     </g>
    </g>
    <g id="xtick_4">
     <g id="line2d_7">
      <path d="M 620.430227 332.848 
L 620.430227 87.222375 
" clip-path="url(#p989416e4fa)" style="fill: none; stroke: #e2e8f0; stroke-width: 0.8; stroke-linecap: square"/>
     </g>
     <g id="line2d_8"/>
     <g id="text_4">
      <!-- 75% -->
      <g style="fill: #64748b" transform="translate(609.724759 348.123) scale(0.1 -0.1)">
       <defs>
        <path id="Inter-Regular-37" d="M 625 0 
L 2694 4097 
L 2694 4134 
L 306 4134 
L 306 4656 
L 3316 4656 
L 3316 4103 
L 1250 0 
L 625 0 
z
" transform="scale(0.015625)"/>
       </defs>
       <use xlink:href="#Inter-Regular-37"/>
       <use xlink:href="#Inter-Regular-35" transform="translate(56.591797 0)"/>
       <use xlink:href="#Inter-Regular-25" transform="translate(115.917969 0)"/>
      </g>
     </g>
    </g>
    <g id="xtick_5">
     <g id="line2d_9">
      <path d="M 760.208636 332.848 
L 760.208636 87.222375 
" clip-path="url(#p989416e4fa)" style="fill: none; stroke: #e2e8f0; stroke-width: 0.8; stroke-linecap: square"/>
     </g>
     <g id="line2d_10"/>
     <g id="text_5">
      <!-- 100% -->
      <g style="fill: #64748b" transform="translate(746.956293 348.123) scale(0.1 -0.1)">
       <defs>
        <path id="Inter-Regular-31" d="M 2041 4656 
L 2041 0 
L 1456 0 
L 1456 4106 
L 1425 4106 
L 300 3272 
L 300 3909 
L 1313 4656 
L 2041 4656 
z
" transform="scale(0.015625)"/>
       </defs>
       <use xlink:href="#Inter-Regular-31"/>
       <use xlink:href="#Inter-Regular-30" transform="translate(40.673828 0)"/>
       <use xlink:href="#Inter-Regular-30" transform="translate(103.759766 0)"/>
       <use xlink:href="#Inter-Regular-25" transform="translate(166.845703 0)"/>
      </g>
     </g>
    </g>
   </g>
   <g id="matplotlib.axis_2">
    <g id="ytick_1">
     <g id="line2d_11"/>
     <g id="text_6">
      <!-- MemoryPilot v4.2 (adaptive) -->
      <g style="fill: #0f172a" transform="translate(32.17125 116.03839) scale(0.12 -0.12)">
       <defs>
        <path id="Inter-Regular-4d" d="M 563 0 
L 563 4656 
L 1406 4656 
L 2553 1719 
Q 2619 1550 2716 1247 
Q 2813 944 2897 659 
Q 2978 934 3075 1239 
Q 3172 1544 3241 1719 
L 4372 4656 
L 5219 4656 
L 5219 0 
L 4634 0 
L 4634 2659 
Q 4634 2916 4640 3287 
Q 4647 3659 4656 4022 
Q 4528 3622 4398 3244 
Q 4269 2866 4188 2659 
L 3147 0 
L 2631 0 
L 1575 2659 
Q 1497 2856 1370 3229 
Q 1244 3603 1106 4013 
Q 1113 3681 1120 3304 
Q 1128 2928 1128 2659 
L 1128 0 
L 563 0 
z
" transform="scale(0.015625)"/>
        <path id="Inter-Regular-65" d="M 1963 -75 
Q 1456 -75 1089 150 
Q 722 375 523 778 
Q 325 1181 325 1719 
Q 325 2256 519 2665 
Q 713 3075 1067 3306 
Q 1422 3538 1897 3538 
Q 2175 3538 2445 3445 
Q 2716 3353 2936 3148 
Q 3156 2944 3287 2609 
Q 3419 2275 3419 1791 
L 3419 1556 
L 894 1556 
Q 916 1009 1208 717 
Q 1500 425 1966 425 
Q 2275 425 2498 561 
Q 2722 697 2819 963 
L 3363 813 
Q 3241 416 2870 170 
Q 2500 -75 1963 -75 
z
M 897 2031 
L 2847 2031 
Q 2806 2478 2567 2758 
Q 2328 3038 1897 3038 
Q 1597 3038 1380 2897 
Q 1163 2756 1038 2528 
Q 913 2300 897 2031 
z
" transform="scale(0.015625)"/>
        <path id="Inter-Regular-6d" d="M 494 0 
L 494 3494 
L 1041 3494 
L 1044 2853 
Q 1172 3206 1442 3381 
Q 1713 3556 2022 3556 
Q 2366 3556 2592 3361 
Q 2819 3166 2913 2844 
Q 3038 3175 3336 3365 
Q 3634 3556 4013 3556 
Q 4316 3556 4566 3425 
Q 4816 3294 4964 3028 
Q 5113 2763 5113 2356 
L 5113 0 
L 4550 0 
L 4550 2341 
Q 4550 2719 4337 2881 
Q 4125 3044 3844 3044 
Q 3491 3044 3287 2828 
Q 3084 2613 3084 2281 
L 3084 0 
L 2522 0 
L 2522 2397 
Q 2522 2688 2328 2866 
Q 2134 3044 1838 3044 
Q 1531 3044 1293 2831 
Q 1056 2619 1056 2200 
L 1056 0 
L 494 0 
z
" transform="scale(0.015625)"/>
        <path id="Inter-Regular-6f" d="M 1916 -75 
Q 1441 -75 1083 150 
Q 725 375 525 781 
Q 325 1188 325 1725 
Q 325 2272 525 2680 
Q 725 3088 1083 3313 
Q 1441 3538 1916 3538 
Q 2394 3538 2753 3313 
Q 3113 3088 3313 2680 
Q 3513 2272 3513 1725 
Q 3513 1188 3313 781 
Q 3113 375 2753 150 
Q 2394 -75 1916 -75 
z
M 1916 428 
Q 2269 428 2497 609 
Q 2725 791 2834 1086 
Q 2944 1381 2944 1725 
Q 2944 2072 2834 2370 
Q 2725 2669 2497 2851 
Q 2269 3034 1916 3034 
Q 1566 3034 1341 2851 
Q 1116 2669 1006 2372 
Q 897 2075 897 1725 
Q 897 1381 1006 1086 
Q 1116 791 1341 609 
Q 1566 428 1916 428 
z
" transform="scale(0.015625)"/>
        <path id="Inter-Regular-72" d="M 494 0 
L 494 3494 
L 1038 3494 
L 1038 2956 
L 1075 2956 
Q 1172 3222 1420 3383 
Q 1669 3544 1981 3544 
Q 2044 3544 2130 3541 
Q 2216 3538 2266 3534 
L 2266 2969 
Q 2241 2975 2141 2987 
Q 2041 3000 1928 3000 
Q 1550 3000 1303 2770 
Q 1056 2541 1056 2188 
L 1056 0 
L 494 0 
z
" transform="scale(0.015625)"/>
        <path id="Inter-Regular-79" d="M 438 -1266 
L 581 -778 
L 641 -794 
Q 900 -863 1087 -773 
Q 1275 -684 1403 -309 
L 1503 -19 
L 169 3494 
L 784 3494 
L 1528 1422 
Q 1609 1194 1673 969 
Q 1738 744 1797 525 
Q 1856 744 1920 969 
Q 1984 1194 2066 1422 
L 2816 3494 
L 3428 3494 
L 1894 -522 
Q 1734 -938 1478 -1134 
Q 1222 -1331 850 -1331 
Q 700 -1331 590 -1309 
Q 481 -1288 438 -1266 
z
" transform="scale(0.015625)"/>
        <path id="Inter-Regular-50" d="M 563 0 
L 563 4656 
L 2156 4656 
Q 2700 4656 3051 4457 
Q 3403 4259 3573 3925 
Q 3744 3591 3744 3175 
Q 3744 2759 3573 2421 
Q 3403 2084 3053 1884 
Q 2703 1684 2159 1684 
L 1156 1684 
L 1156 0 
L 563 0 
z
M 1156 2206 
L 2131 2206 
Q 2684 2206 2918 2482 
Q 3153 2759 3153 3175 
Q 3153 3588 2918 3861 
Q 2684 4134 2125 4134 
L 1156 4134 
L 1156 2206 
z
" transform="scale(0.015625)"/>
        <path id="Inter-Regular-69" d="M 494 0 
L 494 3494 
L 1056 3494 
L 1056 0 
L 494 0 
z
M 780 4066 
Q 621 4066 505 4175 
Q 389 4284 389 4438 
Q 389 4594 505 4701 
Q 621 4809 780 4809 
Q 942 4809 1058 4701 
Q 1174 4594 1174 4438 
Q 1174 4284 1058 4175 
Q 942 4066 780 4066 
z
" transform="scale(0.015625)"/>
        <path id="Inter-Regular-6c" d="M 1056 4656 
L 1056 0 
L 494 0 
L 494 4656 
L 1056 4656 
z
" transform="scale(0.015625)"/>
        <path id="Inter-Regular-74" d="M 1869 3494 
L 1869 3013 
L 1150 3013 
L 1150 906 
Q 1150 672 1245 564 
Q 1341 456 1563 456 
Q 1616 456 1698 468 
Q 1781 481 1850 494 
L 1966 19 
Q 1878 -13 1767 -28 
Q 1656 -44 1547 -44 
Q 1094 -44 841 195 
Q 588 434 588 863 
L 588 3013 
L 63 3013 
L 63 3494 
L 588 3494 
L 588 4325 
L 1150 4325 
L 1150 3494 
L 1869 3494 
z
" transform="scale(0.015625)"/>
        <path id="Inter-Regular-20" transform="scale(0.015625)"/>
        <path id="Inter-Regular-76" d="M 1503 0 
L 169 3494 
L 784 3494 
L 1528 1422 
Q 1609 1194 1675 967 
Q 1741 741 1800 522 
Q 1859 741 1923 967 
Q 1988 1194 2069 1422 
L 2813 3494 
L 3428 3494 
L 2094 0 
L 1503 0 
z
" transform="scale(0.015625)"/>
        <path id="Inter-Regular-34" d="M 375 947 
L 375 1431 
L 2413 4656 
L 3134 4656 
L 3134 1469 
L 3766 1469 
L 3766 947 
L 3134 947 
L 3134 0 
L 2566 0 
L 2566 947 
L 375 947 
z
M 2569 1469 
L 2569 3913 
L 2531 3913 
L 1009 1506 
L 1009 1469 
L 2569 1469 
z
" transform="scale(0.015625)"/>
        <path id="Inter-Regular-2e" d="M 922 -41 
Q 747 -41 623 82 
Q 500 206 500 381 
Q 500 556 623 679 
Q 747 803 922 803 
Q 1097 803 1220 679 
Q 1344 556 1344 381 
Q 1344 206 1220 82 
Q 1097 -41 922 -41 
z
" transform="scale(0.015625)"/>
        <path id="Inter-Regular-28" d="M 681 1897 
Q 681 2406 786 2964 
Q 891 3522 1072 4039 
Q 1253 4556 1488 4941 
L 2034 4941 
Q 1794 4450 1617 3919 
Q 1441 3388 1347 2870 
Q 1253 2353 1253 1897 
Q 1253 1275 1442 617 
Q 1631 -41 2034 -872 
L 1488 -872 
Q 1091 -194 886 509 
Q 681 1213 681 1897 
z
" transform="scale(0.015625)"/>
        <path id="Inter-Regular-61" d="M 1472 -81 
Q 1141 -81 870 44 
Q 600 169 440 409 
Q 281 650 281 994 
Q 281 1294 400 1481 
Q 519 1669 717 1776 
Q 916 1884 1156 1937 
Q 1397 1991 1641 2022 
Q 1953 2063 2150 2084 
Q 2347 2106 2442 2159 
Q 2538 2213 2538 2341 
L 2538 2359 
Q 2538 2684 2353 2864 
Q 2169 3044 1806 3044 
Q 1428 3044 1215 2880 
Q 1003 2716 922 2531 
L 381 2709 
Q 516 3028 744 3208 
Q 972 3388 1247 3463 
Q 1522 3538 1791 3538 
Q 1966 3538 2189 3495 
Q 2413 3453 2620 3328 
Q 2828 3203 2964 2958 
Q 3100 2713 3100 2303 
L 3100 0 
L 2547 0 
L 2547 475 
L 2509 475 
Q 2450 353 2319 223 
Q 2188 94 1978 6 
Q 1769 -81 1472 -81 
z
M 1569 416 
Q 1881 416 2097 537 
Q 2313 659 2425 854 
Q 2538 1050 2538 1263 
L 2538 1747 
Q 2503 1706 2387 1673 
Q 2272 1641 2123 1616 
Q 1975 1591 1836 1573 
Q 1697 1556 1616 1547 
Q 1413 1522 1236 1461 
Q 1059 1400 953 1283 
Q 847 1166 847 966 
Q 847 694 1051 555 
Q 1256 416 1569 416 
z
" transform="scale(0.015625)"/>
        <path id="Inter-Regular-64" d="M 1803 -75 
Q 1369 -75 1034 147 
Q 700 369 512 775 
Q 325 1181 325 1738 
Q 325 2291 514 2695 
Q 703 3100 1037 3319 
Q 1372 3538 1806 3538 
Q 2147 3538 2347 3425 
Q 2547 3313 2655 3170 
Q 2763 3028 2819 2934 
L 2863 2934 
L 2863 4656 
L 3425 4656 
L 3425 0 
L 2881 0 
L 2881 541 
L 2819 541 
Q 2763 444 2652 298 
Q 2541 153 2339 39 
Q 2138 -75 1803 -75 
z
M 1888 428 
Q 2363 428 2616 793 
Q 2869 1159 2869 1744 
Q 2869 2322 2620 2678 
Q 2372 3034 1888 3034 
Q 1556 3034 1336 2862 
Q 1116 2691 1006 2398 
Q 897 2106 897 1744 
Q 897 1378 1008 1079 
Q 1119 781 1341 604 
Q 1563 428 1888 428 
z
" transform="scale(0.015625)"/>
        <path id="Inter-Regular-70" d="M 494 -1306 
L 494 3494 
L 1038 3494 
L 1038 2934 
L 1100 2934 
Q 1159 3028 1265 3170 
Q 1372 3313 1572 3425 
Q 1772 3538 2113 3538 
Q 2550 3538 2883 3319 
Q 3216 3100 3405 2695 
Q 3594 2291 3594 1738 
Q 3594 1181 3406 775 
Q 3219 369 2886 147 
Q 2553 -75 2116 -75 
Q 1784 -75 1581 39 
Q 1378 153 1268 298 
Q 1159 444 1100 541 
L 1056 541 
L 1056 -1306 
L 494 -1306 
z
M 2031 428 
Q 2359 428 2579 604 
Q 2800 781 2911 1079 
Q 3022 1378 3022 1744 
Q 3022 2106 2912 2398 
Q 2803 2691 2583 2862 
Q 2363 3034 2031 3034 
Q 1550 3034 1300 2678 
Q 1050 2322 1050 1744 
Q 1050 1159 1303 793 
Q 1556 428 2031 428 
z
" transform="scale(0.015625)"/>
        <path id="Inter-Regular-29" d="M 300 -872 
Q 716 -16 898 639 
Q 1081 1294 1081 1897 
Q 1081 2353 987 2870 
Q 894 3388 719 3919 
Q 544 4450 300 4941 
L 847 4941 
Q 1081 4556 1264 4039 
Q 1447 3522 1550 2962 
Q 1653 2403 1653 1897 
Q 1653 1200 1445 497 
Q 1238 -206 847 -872 
L 300 -872 
z
" transform="scale(0.015625)"/>
       </defs>
       <use xlink:href="#Inter-Regular-4d"/>
       <use xlink:href="#Inter-Regular-65" transform="translate(90.332031 0)"/>
       <use xlink:href="#Inter-Regular-6d" transform="translate(148.632812 0)"/>
       <use xlink:href="#Inter-Regular-6f" transform="translate(236.230469 0)"/>
       <use xlink:href="#Inter-Regular-72" transform="translate(296.191406 0)"/>
       <use xlink:href="#Inter-Regular-79" transform="translate(333.837891 0)"/>
       <use xlink:href="#Inter-Regular-50" transform="translate(390.039062 0)"/>
       <use xlink:href="#Inter-Regular-69" transform="translate(453.90625 0)"/>
       <use xlink:href="#Inter-Regular-6c" transform="translate(478.125 0)"/>
       <use xlink:href="#Inter-Regular-6f" transform="translate(502.34375 0)"/>
       <use xlink:href="#Inter-Regular-74" transform="translate(562.304688 0)"/>
       <use xlink:href="#Inter-Regular-20" transform="translate(595.019531 0)"/>
       <use xlink:href="#Inter-Regular-76" transform="translate(623.144531 0)"/>
       <use xlink:href="#Inter-Regular-34" transform="translate(679.345703 0)"/>
       <use xlink:href="#Inter-Regular-2e" transform="translate(743.945312 0)"/>
       <use xlink:href="#Inter-Regular-32" transform="translate(772.753906 0)"/>
       <use xlink:href="#Inter-Regular-20" transform="translate(833.740234 0)"/>
       <use xlink:href="#Inter-Regular-28" transform="translate(861.865234 0)"/>
       <use xlink:href="#Inter-Regular-61" transform="translate(898.339844 0)"/>
       <use xlink:href="#Inter-Regular-64" transform="translate(954.492188 0)"/>
       <use xlink:href="#Inter-Regular-61" transform="translate(1015.722656 0)"/>
       <use xlink:href="#Inter-Regular-70" transform="translate(1071.875 0)"/>
       <use xlink:href="#Inter-Regular-74" transform="translate(1133.105469 0)"/>
       <use xlink:href="#Inter-Regular-69" transform="translate(1165.820312 0)"/>
       <use xlink:href="#Inter-Regular-76" transform="translate(1190.039062 0)"/>
       <use xlink:href="#Inter-Regular-65" transform="translate(1246.240234 0)"/>
       <use xlink:href="#Inter-Regular-29" transform="translate(1304.541016 0)"/>
      </g>
     </g>
    </g>
    <g id="ytick_2">
     <g id="line2d_12"/>
     <g id="text_7">
      <!-- MemoryPilot v4.2 (fast, ~28 ms) -->
      <g style="fill: #0f172a" transform="translate(9.744375 155.489984) scale(0.12 -0.12)">
       <defs>
        <path id="Inter-Regular-66" d="M 2119 3494 
L 2119 3013 
L 1313 3013 
L 1313 0 
L 750 0 
L 750 3013 
L 63 3013 
L 63 3494 
L 750 3494 
L 750 3959 
Q 750 4263 892 4466 
Q 1034 4669 1262 4772 
Q 1491 4875 1744 4875 
Q 1944 4875 2075 4842 
Q 2206 4809 2269 4781 
L 2113 4300 
Q 2069 4316 1998 4334 
Q 1928 4353 1809 4353 
Q 1550 4353 1431 4220 
Q 1313 4088 1313 3834 
L 1313 3494 
L 2119 3494 
z
" transform="scale(0.015625)"/>
        <path id="Inter-Regular-73" d="M 1681 -75 
Q 1144 -75 787 159 
Q 431 394 338 847 
L 872 975 
Q 947 688 1155 553 
Q 1363 419 1675 419 
Q 2041 419 2258 575 
Q 2475 731 2475 947 
Q 2475 1306 1963 1428 
L 1381 1566 
Q 444 1788 444 2519 
Q 444 2819 612 3048 
Q 781 3278 1073 3408 
Q 1366 3538 1738 3538 
Q 2278 3538 2576 3302 
Q 2875 3066 2994 2697 
L 2484 2566 
Q 2413 2753 2245 2906 
Q 2078 3059 1741 3059 
Q 1428 3059 1220 2915 
Q 1013 2772 1013 2553 
Q 1013 2359 1153 2242 
Q 1294 2125 1600 2053 
L 2128 1928 
Q 2603 1816 2831 1580 
Q 3059 1344 3059 984 
Q 3059 678 2886 439 
Q 2713 200 2402 62 
Q 2091 -75 1681 -75 
z
" transform="scale(0.015625)"/>
        <path id="Inter-Regular-2c" d="M 404 -1148 
L 679 624 
L 1323 624 
L 835 -1148 
L 404 -1148 
z
" transform="scale(0.015625)"/>
        <path id="Inter-Regular-7e" d="M 525 1372 
Q 519 1759 648 1993 
Q 778 2228 989 2333 
Q 1200 2438 1431 2438 
Q 1663 2438 1853 2341 
Q 2044 2244 2297 2022 
Q 2463 1878 2563 1818 
Q 2663 1759 2781 1759 
Q 2975 1759 3086 1900 
Q 3197 2041 3197 2313 
L 3709 2313 
Q 3716 1928 3584 1693 
Q 3453 1459 3243 1354 
Q 3034 1250 2803 1250 
Q 2566 1250 2372 1351 
Q 2178 1453 1938 1663 
Q 1769 1809 1670 1867 
Q 1572 1925 1453 1925 
Q 1272 1925 1153 1797 
Q 1034 1669 1038 1372 
L 525 1372 
z
" transform="scale(0.015625)"/>
        <path id="Inter-Regular-38" d="M 1978 -63 
Q 1506 -63 1145 104 
Q 784 272 582 565 
Q 381 859 381 1238 
Q 381 1531 500 1782 
Q 619 2034 825 2203 
Q 1031 2372 1291 2419 
L 1291 2444 
Q 950 2531 750 2822 
Q 550 3113 550 3481 
Q 550 3838 734 4117 
Q 919 4397 1241 4558 
Q 1563 4719 1978 4719 
Q 2388 4719 2709 4558 
Q 3031 4397 3217 4117 
Q 3403 3838 3403 3481 
Q 3403 3113 3201 2822 
Q 3000 2531 2669 2444 
L 2669 2419 
Q 2922 2372 3128 2203 
Q 3334 2034 3456 1782 
Q 3578 1531 3578 1238 
Q 3578 859 3373 565 
Q 3169 272 2808 104 
Q 2447 -63 1978 -63 
z
M 1978 453 
Q 2441 453 2712 676 
Q 2984 900 2984 1269 
Q 2984 1528 2853 1726 
Q 2722 1925 2494 2039 
Q 2266 2153 1978 2153 
Q 1538 2153 1252 1904 
Q 966 1656 966 1269 
Q 966 900 1236 676 
Q 1506 453 1978 453 
z
M 1978 2650 
Q 2347 2650 2587 2867 
Q 2828 3084 2828 3438 
Q 2828 3788 2593 3997 
Q 2359 4206 1978 4206 
Q 1591 4206 1358 3997 
Q 1125 3788 1125 3438 
Q 1125 3084 1362 2867 
Q 1600 2650 1978 2650 
z
" transform="scale(0.015625)"/>
       </defs>
       <use xlink:href="#Inter-Regular-4d"/>
       <use xlink:href="#Inter-Regular-65" transform="translate(90.332031 0)"/>
       <use xlink:href="#Inter-Regular-6d" transform="translate(148.632812 0)"/>
       <use xlink:href="#Inter-Regular-6f" transform="translate(236.230469 0)"/>
       <use xlink:href="#Inter-Regular-72" transform="translate(296.191406 0)"/>
       <use xlink:href="#Inter-Regular-79" transform="translate(333.837891 0)"/>
       <use xlink:href="#Inter-Regular-50" transform="translate(390.039062 0)"/>
       <use xlink:href="#Inter-Regular-69" transform="translate(453.90625 0)"/>
       <use xlink:href="#Inter-Regular-6c" transform="translate(478.125 0)"/>
       <use xlink:href="#Inter-Regular-6f" transform="translate(502.34375 0)"/>
       <use xlink:href="#Inter-Regular-74" transform="translate(562.304688 0)"/>
       <use xlink:href="#Inter-Regular-20" transform="translate(595.019531 0)"/>
       <use xlink:href="#Inter-Regular-76" transform="translate(623.144531 0)"/>
       <use xlink:href="#Inter-Regular-34" transform="translate(679.345703 0)"/>
       <use xlink:href="#Inter-Regular-2e" transform="translate(743.945312 0)"/>
       <use xlink:href="#Inter-Regular-32" transform="translate(772.753906 0)"/>
       <use xlink:href="#Inter-Regular-20" transform="translate(833.740234 0)"/>
       <use xlink:href="#Inter-Regular-28" transform="translate(861.865234 0)"/>
       <use xlink:href="#Inter-Regular-66" transform="translate(898.339844 0)"/>
       <use xlink:href="#Inter-Regular-61" transform="translate(935.351562 0)"/>
       <use xlink:href="#Inter-Regular-73" transform="translate(991.503906 0)"/>
       <use xlink:href="#Inter-Regular-74" transform="translate(1044.287109 0)"/>
       <use xlink:href="#Inter-Regular-2c" transform="translate(1077.001953 0)"/>
       <use xlink:href="#Inter-Regular-20" transform="translate(1105.810547 0)"/>
       <use xlink:href="#Inter-Regular-7e" transform="translate(1133.935547 0)"/>
       <use xlink:href="#Inter-Regular-32" transform="translate(1200.097656 0)"/>
       <use xlink:href="#Inter-Regular-38" transform="translate(1261.083984 0)"/>
       <use xlink:href="#Inter-Regular-20" transform="translate(1322.949219 0)"/>
       <use xlink:href="#Inter-Regular-6d" transform="translate(1351.074219 0)"/>
       <use xlink:href="#Inter-Regular-73" transform="translate(1438.671875 0)"/>
       <use xlink:href="#Inter-Regular-29" transform="translate(1491.455078 0)"/>
      </g>
     </g>
    </g>
    <g id="ytick_3">
     <g id="line2d_13"/>
     <g id="text_8">
      <!-- MemPalace v3.3.3 (hybrid) -->
      <g style="fill: #475569" transform="translate(39.493125 194.941578) scale(0.12 -0.12)">
       <defs>
        <path id="Inter-Regular-63" d="M 1916 -75 
Q 1441 -75 1083 150 
Q 725 375 525 781 
Q 325 1188 325 1725 
Q 325 2272 525 2680 
Q 725 3088 1083 3313 
Q 1441 3538 1916 3538 
Q 2422 3538 2805 3283 
Q 3188 3028 3331 2572 
L 2791 2419 
Q 2713 2688 2486 2861 
Q 2259 3034 1916 3034 
Q 1566 3034 1341 2851 
Q 1116 2669 1006 2372 
Q 897 2075 897 1725 
Q 897 1381 1006 1086 
Q 1116 791 1341 609 
Q 1566 428 1916 428 
Q 2269 428 2498 608 
Q 2728 788 2806 1072 
L 3344 919 
Q 3203 453 2815 189 
Q 2428 -75 1916 -75 
z
" transform="scale(0.015625)"/>
        <path id="Inter-Regular-33" d="M 1984 -63 
Q 1528 -63 1175 93 
Q 822 250 614 528 
Q 406 806 391 1175 
L 991 1175 
Q 1016 844 1297 651 
Q 1578 459 1975 459 
Q 2413 459 2698 684 
Q 2984 909 2984 1272 
Q 2984 1650 2703 1889 
Q 2422 2128 1903 2128 
L 1525 2128 
L 1525 2644 
L 1903 2644 
Q 2313 2644 2567 2861 
Q 2822 3078 2822 3438 
Q 2822 3784 2597 3993 
Q 2372 4203 1991 4203 
Q 1753 4203 1545 4117 
Q 1338 4031 1205 3872 
Q 1072 3713 1063 3484 
L 491 3484 
Q 503 3850 709 4128 
Q 916 4406 1255 4562 
Q 1594 4719 2003 4719 
Q 2438 4719 2752 4544 
Q 3066 4369 3234 4084 
Q 3403 3800 3403 3469 
Q 3403 3075 3195 2800 
Q 2988 2525 2631 2419 
L 2631 2381 
Q 3078 2309 3325 2007 
Q 3572 1706 3572 1266 
Q 3572 884 3365 584 
Q 3159 284 2800 110 
Q 2441 -63 1984 -63 
z
" transform="scale(0.015625)"/>
        <path id="Inter-Regular-68" d="M 1056 2094 
L 1056 0 
L 494 0 
L 494 4656 
L 1056 4656 
L 1056 2888 
Q 1228 3238 1495 3388 
Q 1763 3538 2106 3538 
Q 2638 3538 2964 3209 
Q 3291 2881 3291 2219 
L 3291 0 
L 2725 0 
L 2725 2172 
Q 2725 2575 2514 2803 
Q 2303 3031 1938 3031 
Q 1559 3031 1307 2786 
Q 1056 2541 1056 2094 
z
" transform="scale(0.015625)"/>
        <path id="Inter-Regular-62" d="M 2116 -75 
Q 1784 -75 1581 39 
Q 1378 153 1268 298 
Q 1159 444 1100 541 
L 1038 541 
L 1038 0 
L 494 0 
L 494 4656 
L 1056 4656 
L 1056 2934 
L 1100 2934 
Q 1159 3028 1265 3170 
Q 1372 3313 1572 3425 
Q 1772 3538 2113 3538 
Q 2550 3538 2883 3319 
Q 3216 3100 3405 2695 
Q 3594 2291 3594 1738 
Q 3594 1181 3406 775 
Q 3219 369 2886 147 
Q 2553 -75 2116 -75 
z
M 2031 428 
Q 2359 428 2579 604 
Q 2800 781 2911 1079 
Q 3022 1378 3022 1744 
Q 3022 2106 2912 2398 
Q 2803 2691 2583 2862 
Q 2363 3034 2031 3034 
Q 1550 3034 1300 2678 
Q 1050 2322 1050 1744 
Q 1050 1159 1303 793 
Q 1556 428 2031 428 
z
" transform="scale(0.015625)"/>
       </defs>
       <use xlink:href="#Inter-Regular-4d"/>
       <use xlink:href="#Inter-Regular-65" transform="translate(90.332031 0)"/>
       <use xlink:href="#Inter-Regular-6d" transform="translate(148.632812 0)"/>
       <use xlink:href="#Inter-Regular-50" transform="translate(236.230469 0)"/>
       <use xlink:href="#Inter-Regular-61" transform="translate(300.097656 0)"/>
       <use xlink:href="#Inter-Regular-6c" transform="translate(356.25 0)"/>
       <use xlink:href="#Inter-Regular-61" transform="translate(380.46875 0)"/>
       <use xlink:href="#Inter-Regular-63" transform="translate(436.621094 0)"/>
       <use xlink:href="#Inter-Regular-65" transform="translate(493.75 0)"/>
       <use xlink:href="#Inter-Regular-20" transform="translate(552.050781 0)"/>
       <use xlink:href="#Inter-Regular-76" transform="translate(580.175781 0)"/>
       <use xlink:href="#Inter-Regular-33" transform="translate(636.376953 0)"/>
       <use xlink:href="#Inter-Regular-2e" transform="translate(698.144531 0)"/>
       <use xlink:href="#Inter-Regular-33" transform="translate(726.953125 0)"/>
       <use xlink:href="#Inter-Regular-2e" transform="translate(788.720703 0)"/>
       <use xlink:href="#Inter-Regular-33" transform="translate(817.529297 0)"/>
       <use xlink:href="#Inter-Regular-20" transform="translate(879.296875 0)"/>
       <use xlink:href="#Inter-Regular-28" transform="translate(907.421875 0)"/>
       <use xlink:href="#Inter-Regular-68" transform="translate(943.896484 0)"/>
       <use xlink:href="#Inter-Regular-79" transform="translate(1003.027344 0)"/>
       <use xlink:href="#Inter-Regular-62" transform="translate(1059.228516 0)"/>
       <use xlink:href="#Inter-Regular-72" transform="translate(1120.458984 0)"/>
       <use xlink:href="#Inter-Regular-69" transform="translate(1158.105469 0)"/>
       <use xlink:href="#Inter-Regular-64" transform="translate(1182.324219 0)"/>
       <use xlink:href="#Inter-Regular-29" transform="translate(1243.554688 0)"/>
      </g>
     </g>
    </g>
    <g id="ytick_4">
     <g id="line2d_14"/>
     <g id="text_9">
      <!-- Mem0 (cloud, OpenAI) -->
      <g style="fill: #475569" transform="translate(64.704375 234.393172) scale(0.12 -0.12)">
       <defs>
        <path id="Inter-Regular-75" d="M 1678 -44 
Q 1150 -44 822 284 
Q 494 613 494 1275 
L 494 3494 
L 1056 3494 
L 1056 1322 
Q 1056 919 1268 691 
Q 1481 463 1847 463 
Q 2222 463 2473 708 
Q 2725 953 2725 1400 
L 2725 3494 
L 3291 3494 
L 3291 0 
L 2747 0 
L 2747 653 
Q 2575 272 2298 114 
Q 2022 -44 1678 -44 
z
" transform="scale(0.015625)"/>
        <path id="Inter-Regular-4f" d="M 2450 -63 
Q 1853 -63 1386 226 
Q 919 516 650 1052 
Q 381 1588 381 2325 
Q 381 3066 650 3602 
Q 919 4138 1386 4428 
Q 1853 4719 2450 4719 
Q 3047 4719 3512 4428 
Q 3978 4138 4245 3602 
Q 4513 3066 4513 2325 
Q 4513 1588 4245 1052 
Q 3978 516 3512 226 
Q 3047 -63 2450 -63 
z
M 2450 488 
Q 2866 488 3202 698 
Q 3538 909 3736 1320 
Q 3934 1731 3934 2325 
Q 3934 2925 3736 3336 
Q 3538 3747 3202 3958 
Q 2866 4169 2450 4169 
Q 2031 4169 1693 3956 
Q 1356 3744 1157 3333 
Q 959 2922 959 2325 
Q 959 1731 1157 1322 
Q 1356 913 1693 700 
Q 2031 488 2450 488 
z
" transform="scale(0.015625)"/>
        <path id="Inter-Regular-6e" d="M 1056 2094 
L 1056 0 
L 494 0 
L 494 3494 
L 1034 3494 
L 1038 2847 
Q 1206 3219 1479 3378 
Q 1753 3538 2106 3538 
Q 2638 3538 2963 3209 
Q 3288 2881 3288 2219 
L 3288 0 
L 2725 0 
L 2725 2172 
Q 2725 2575 2514 2803 
Q 2303 3031 1938 3031 
Q 1559 3031 1307 2786 
Q 1056 2541 1056 2094 
z
" transform="scale(0.015625)"/>
        <path id="Inter-Regular-41" d="M 163 0 
L 1853 4656 
L 2541 4656 
L 4253 0 
L 3628 0 
L 3163 1300 
L 1244 1300 
L 794 0 
L 163 0 
z
M 1425 1819 
L 2978 1819 
L 2641 2763 
Q 2556 2997 2450 3336 
Q 2344 3675 2194 4181 
Q 2047 3666 1937 3322 
Q 1828 2978 1753 2763 
L 1425 1819 
z
" transform="scale(0.015625)"/>
        <path id="Inter-Regular-49" d="M 1156 4656 
L 1156 0 
L 563 0 
L 563 4656 
L 1156 4656 
z
" transform="scale(0.015625)"/>
       </defs>
       <use xlink:href="#Inter-Regular-4d"/>
       <use xlink:href="#Inter-Regular-65" transform="translate(90.332031 0)"/>
       <use xlink:href="#Inter-Regular-6d" transform="translate(148.632812 0)"/>
       <use xlink:href="#Inter-Regular-30" transform="translate(236.230469 0)"/>
       <use xlink:href="#Inter-Regular-20" transform="translate(299.316406 0)"/>
       <use xlink:href="#Inter-Regular-28" transform="translate(327.441406 0)"/>
       <use xlink:href="#Inter-Regular-63" transform="translate(363.916016 0)"/>
       <use xlink:href="#Inter-Regular-6c" transform="translate(421.044922 0)"/>
       <use xlink:href="#Inter-Regular-6f" transform="translate(445.263672 0)"/>
       <use xlink:href="#Inter-Regular-75" transform="translate(505.224609 0)"/>
       <use xlink:href="#Inter-Regular-64" transform="translate(564.355469 0)"/>
       <use xlink:href="#Inter-Regular-2c" transform="translate(625.585938 0)"/>
       <use xlink:href="#Inter-Regular-20" transform="translate(654.394531 0)"/>
       <use xlink:href="#Inter-Regular-4f" transform="translate(682.519531 0)"/>
       <use xlink:href="#Inter-Regular-70" transform="translate(758.984375 0)"/>
       <use xlink:href="#Inter-Regular-65" transform="translate(820.214844 0)"/>
       <use xlink:href="#Inter-Regular-6e" transform="translate(878.515625 0)"/>
       <use xlink:href="#Inter-Regular-41" transform="translate(937.597656 0)"/>
       <use xlink:href="#Inter-Regular-49" transform="translate(1006.591797 0)"/>
       <use xlink:href="#Inter-Regular-29" transform="translate(1033.447266 0)"/>
      </g>
     </g>
    </g>
    <g id="ytick_5">
     <g id="line2d_15"/>
     <g id="text_10">
      <!-- mcp-memory-service v10.34 -->
      <g style="fill: #475569" transform="translate(28.325625 273.721016) scale(0.12 -0.12)">
       <defs>
        <path id="Inter-Regular-2d" d="M 2494 2247 
L 2494 1728 
L 450 1728 
L 450 2247 
L 2494 2247 
z
" transform="scale(0.015625)"/>
       </defs>
       <use xlink:href="#Inter-Regular-6d"/>
       <use xlink:href="#Inter-Regular-63" transform="translate(87.597656 0)"/>
       <use xlink:href="#Inter-Regular-70" transform="translate(144.726562 0)"/>
       <use xlink:href="#Inter-Regular-2d" transform="translate(205.957031 0)"/>
       <use xlink:href="#Inter-Regular-6d" transform="translate(251.953125 0)"/>
       <use xlink:href="#Inter-Regular-65" transform="translate(339.550781 0)"/>
       <use xlink:href="#Inter-Regular-6d" transform="translate(397.851562 0)"/>
       <use xlink:href="#Inter-Regular-6f" transform="translate(485.449219 0)"/>
       <use xlink:href="#Inter-Regular-72" transform="translate(545.410156 0)"/>
       <use xlink:href="#Inter-Regular-79" transform="translate(583.056641 0)"/>
       <use xlink:href="#Inter-Regular-2d" transform="translate(639.257812 0)"/>
       <use xlink:href="#Inter-Regular-73" transform="translate(685.253906 0)"/>
       <use xlink:href="#Inter-Regular-65" transform="translate(738.037109 0)"/>
       <use xlink:href="#Inter-Regular-72" transform="translate(796.337891 0)"/>
       <use xlink:href="#Inter-Regular-76" transform="translate(833.984375 0)"/>
       <use xlink:href="#Inter-Regular-69" transform="translate(890.185547 0)"/>
       <use xlink:href="#Inter-Regular-63" transform="translate(914.404297 0)"/>
       <use xlink:href="#Inter-Regular-65" transform="translate(971.533203 0)"/>
       <use xlink:href="#Inter-Regular-20" transform="translate(1029.833984 0)"/>
       <use xlink:href="#Inter-Regular-76" transform="translate(1057.958984 0)"/>
       <use xlink:href="#Inter-Regular-31" transform="translate(1114.160156 0)"/>
       <use xlink:href="#Inter-Regular-30" transform="translate(1154.833984 0)"/>
       <use xlink:href="#Inter-Regular-2e" transform="translate(1217.919922 0)"/>
       <use xlink:href="#Inter-Regular-33" transform="translate(1246.728516 0)"/>
       <use xlink:href="#Inter-Regular-34" transform="translate(1308.496094 0)"/>
      </g>
     </g>
    </g>
    <g id="ytick_6">
     <g id="line2d_16"/>
     <g id="text_11">
      <!-- Zep / Graphiti -->
      <g style="fill: #475569" transform="translate(115.74 313.234485) scale(0.12 -0.12)">
       <defs>
        <path id="Inter-Regular-5a" d="M 406 0 
L 406 419 
L 2488 3516 
Q 2594 3672 2711 3831 
Q 2828 3991 2947 4147 
Q 2716 4138 2481 4134 
Q 2247 4131 2016 4131 
L 381 4131 
L 381 4656 
L 3619 4656 
L 3619 4231 
L 1569 1184 
Q 1453 1016 1329 845 
Q 1206 675 1078 509 
Q 1309 519 1539 522 
Q 1769 525 2000 525 
L 3644 525 
L 3644 0 
L 406 0 
z
" transform="scale(0.015625)"/>
        <path id="Inter-Regular-2f" d="M 2163 4875 
L 663 -700 
L 144 -700 
L 1644 4875 
L 2163 4875 
z
" transform="scale(0.015625)"/>
        <path id="Inter-Regular-47" d="M 2466 -63 
Q 1844 -63 1375 228 
Q 906 519 643 1055 
Q 381 1591 381 2325 
Q 381 3066 643 3602 
Q 906 4138 1368 4428 
Q 1831 4719 2428 4719 
Q 2922 4719 3323 4526 
Q 3725 4334 3990 3992 
Q 4256 3650 4341 3197 
L 3728 3197 
Q 3584 3644 3254 3906 
Q 2925 4169 2431 4169 
Q 2022 4169 1687 3958 
Q 1353 3747 1156 3336 
Q 959 2925 959 2325 
Q 959 1731 1157 1322 
Q 1356 913 1697 700 
Q 2038 488 2466 488 
Q 2853 488 3150 650 
Q 3447 813 3617 1113 
Q 3788 1413 3794 1822 
L 2588 1822 
L 2588 2341 
L 4375 2341 
L 4375 1831 
Q 4375 1253 4128 828 
Q 3881 403 3451 170 
Q 3022 -63 2466 -63 
z
" transform="scale(0.015625)"/>
       </defs>
       <use xlink:href="#Inter-Regular-5a"/>
       <use xlink:href="#Inter-Regular-65" transform="translate(62.890625 0)"/>
       <use xlink:href="#Inter-Regular-70" transform="translate(121.191406 0)"/>
       <use xlink:href="#Inter-Regular-20" transform="translate(182.421875 0)"/>
       <use xlink:href="#Inter-Regular-2f" transform="translate(210.546875 0)"/>
       <use xlink:href="#Inter-Regular-20" transform="translate(246.582031 0)"/>
       <use xlink:href="#Inter-Regular-47" transform="translate(274.707031 0)"/>
       <use xlink:href="#Inter-Regular-72" transform="translate(349.316406 0)"/>
       <use xlink:href="#Inter-Regular-61" transform="translate(386.962891 0)"/>
       <use xlink:href="#Inter-Regular-70" transform="translate(443.115234 0)"/>
       <use xlink:href="#Inter-Regular-68" transform="translate(504.345703 0)"/>
       <use xlink:href="#Inter-Regular-69" transform="translate(563.476562 0)"/>
       <use xlink:href="#Inter-Regular-74" transform="translate(587.695312 0)"/>
       <use xlink:href="#Inter-Regular-69" transform="translate(620.410156 0)"/>
      </g>
     </g>
    </g>
   </g>
   <g id="patch_3">
    <path d="M 201.095 124.425228 
L 755.176614 124.425228 
L 755.176614 98.387176 
L 201.095 98.387176 
z
" clip-path="url(#p989416e4fa)" style="fill: #84cc16"/>
   </g>
   <g id="patch_4">
    <path d="M 201.095 163.876822 
L 752.940159 163.876822 
L 752.940159 137.83877 
L 201.095 137.83877 
z
" clip-path="url(#p989416e4fa)" style="fill: #a3e635"/>
   </g>
   <g id="patch_5">
    <path d="M 201.095 203.328416 
L 751.262818 203.328416 
L 751.262818 177.290364 
L 201.095 177.290364 
z
" clip-path="url(#p989416e4fa)" style="fill: #475569"/>
   </g>
   <g id="patch_6">
    <path d="M 201.095 242.780011 
L 728.898273 242.780011 
L 728.898273 216.741959 
L 201.095 216.741959 
z
" clip-path="url(#p989416e4fa)" style="fill: #64748b"/>
   </g>
   <g id="patch_7">
    <path d="M 201.095 282.231605 
L 650.622364 282.231605 
L 650.622364 256.193553 
L 201.095 256.193553 
z
" clip-path="url(#p989416e4fa)" style="fill: #94a3b8"/>
   </g>
   <g id="patch_8">
    <path d="M 201.095 321.683199 
L 557.8095 321.683199 
L 557.8095 295.645147 
L 201.095 295.645147 
z
" clip-path="url(#p989416e4fa)" style="fill: #cbd5e1"/>
   </g>
   <g id="text_12">
    <!-- 99.1% -->
    <g style="fill: #0f172a" transform="translate(759.090409 114.677687) scale(0.125 -0.125)">
     <defs>
      <path id="Inter-Regular-39" d="M 1884 -63 
Q 1488 -63 1178 93 
Q 869 250 672 531 
Q 475 813 419 1184 
L 1006 1184 
Q 1078 875 1297 669 
Q 1516 463 1884 463 
Q 2416 463 2723 927 
Q 3031 1391 3031 2238 
L 2994 2238 
Q 2806 1953 2509 1784 
Q 2213 1616 1847 1616 
Q 1447 1616 1112 1814 
Q 778 2013 579 2361 
Q 381 2709 381 3156 
Q 381 3591 578 3948 
Q 775 4306 1129 4517 
Q 1484 4728 1963 4719 
Q 2250 4716 2537 4608 
Q 2825 4500 3062 4253 
Q 3300 4006 3444 3581 
Q 3588 3156 3588 2513 
Q 3588 1278 3131 607 
Q 2675 -63 1884 -63 
z
M 1934 2134 
Q 2219 2134 2447 2279 
Q 2675 2425 2811 2662 
Q 2947 2900 2947 3172 
Q 2947 3441 2817 3673 
Q 2688 3906 2464 4051 
Q 2241 4197 1953 4197 
Q 1672 4197 1448 4058 
Q 1225 3919 1094 3683 
Q 963 3447 963 3159 
Q 963 2875 1089 2642 
Q 1216 2409 1434 2271 
Q 1653 2134 1934 2134 
z
" transform="scale(0.015625)"/>
     </defs>
     <use xlink:href="#Inter-Regular-39"/>
     <use xlink:href="#Inter-Regular-39" transform="translate(62.011719 0)"/>
     <use xlink:href="#Inter-Regular-2e" transform="translate(124.023438 0)"/>
     <use xlink:href="#Inter-Regular-31" transform="translate(152.832031 0)"/>
     <use xlink:href="#Inter-Regular-25" transform="translate(193.505859 0)"/>
    </g>
   </g>
   <g id="text_13">
    <!-- 98.7% -->
    <g style="fill: #0f172a" transform="translate(756.853955 154.129281) scale(0.125 -0.125)">
     <use xlink:href="#Inter-Regular-39"/>
     <use xlink:href="#Inter-Regular-38" transform="translate(62.011719 0)"/>
     <use xlink:href="#Inter-Regular-2e" transform="translate(123.876953 0)"/>
     <use xlink:href="#Inter-Regular-37" transform="translate(152.685547 0)"/>
     <use xlink:href="#Inter-Regular-25" transform="translate(209.277344 0)"/>
    </g>
   </g>
   <g id="text_14">
    <!-- 98.4% -->
    <g style="fill: #334155" transform="translate(755.176614 193.580875) scale(0.125 -0.125)">
     <use xlink:href="#Inter-Regular-39"/>
     <use xlink:href="#Inter-Regular-38" transform="translate(62.011719 0)"/>
     <use xlink:href="#Inter-Regular-2e" transform="translate(123.876953 0)"/>
     <use xlink:href="#Inter-Regular-34" transform="translate(152.685547 0)"/>
     <use xlink:href="#Inter-Regular-25" transform="translate(217.285156 0)"/>
    </g>
   </g>
   <g id="text_15">
    <!-- 94.4% -->
    <g style="fill: #334155" transform="translate(732.812068 233.032469) scale(0.125 -0.125)">
     <use xlink:href="#Inter-Regular-39"/>
     <use xlink:href="#Inter-Regular-34" transform="translate(62.011719 0)"/>
     <use xlink:href="#Inter-Regular-2e" transform="translate(126.611328 0)"/>
     <use xlink:href="#Inter-Regular-34" transform="translate(155.419922 0)"/>
     <use xlink:href="#Inter-Regular-25" transform="translate(220.019531 0)"/>
    </g>
   </g>
   <g id="text_16">
    <!-- 80.4% -->
    <g style="fill: #334155" transform="translate(654.536159 272.484063) scale(0.125 -0.125)">
     <use xlink:href="#Inter-Regular-38"/>
     <use xlink:href="#Inter-Regular-30" transform="translate(61.865234 0)"/>
     <use xlink:href="#Inter-Regular-2e" transform="translate(124.951172 0)"/>
     <use xlink:href="#Inter-Regular-34" transform="translate(153.759766 0)"/>
     <use xlink:href="#Inter-Regular-25" transform="translate(218.359375 0)"/>
    </g>
   </g>
   <g id="text_17">
    <!-- 63.8% -->
    <g style="fill: #334155" transform="translate(561.723295 311.935657) scale(0.125 -0.125)">
     <defs>
      <path id="Inter-Regular-36" d="M 2019 -63 
Q 1728 -63 1437 43 
Q 1147 150 908 400 
Q 669 650 525 1078 
Q 381 1506 381 2150 
Q 381 3378 840 4048 
Q 1300 4719 2091 4719 
Q 2481 4719 2790 4562 
Q 3100 4406 3297 4128 
Q 3494 3850 3550 3484 
L 2969 3484 
Q 2891 3788 2672 3991 
Q 2453 4194 2091 4194 
Q 1553 4194 1248 3730 
Q 944 3266 944 2425 
L 981 2425 
Q 1169 2716 1467 2880 
Q 1766 3044 2128 3044 
Q 2528 3044 2859 2847 
Q 3191 2650 3389 2301 
Q 3588 1953 3588 1503 
Q 3588 1069 3394 714 
Q 3200 359 2847 148 
Q 2494 -63 2019 -63 
z
M 2019 459 
Q 2300 459 2525 600 
Q 2750 741 2881 977 
Q 3013 1213 3013 1503 
Q 3013 1788 2886 2020 
Q 2759 2253 2537 2390 
Q 2316 2528 2034 2528 
Q 1753 2528 1525 2384 
Q 1297 2241 1162 2005 
Q 1028 1769 1028 1497 
Q 1028 1222 1156 986 
Q 1284 750 1509 604 
Q 1734 459 2019 459 
z
" transform="scale(0.015625)"/>
     </defs>
     <use xlink:href="#Inter-Regular-36"/>
     <use xlink:href="#Inter-Regular-33" transform="translate(62.011719 0)"/>
     <use xlink:href="#Inter-Regular-2e" transform="translate(123.779297 0)"/>
     <use xlink:href="#Inter-Regular-38" transform="translate(152.587891 0)"/>
     <use xlink:href="#Inter-Regular-25" transform="translate(214.453125 0)"/>
    </g>
   </g>
  </g>
  <g id="text_18">
   <!-- LongMemEval-S — R@5 / accuracy across LLM memory layers -->
   <g style="fill: #0f172a" transform="translate(15.48 19.3875) scale(0.16 -0.16)">
    <defs>
     <path id="Inter-Regular-4c" d="M 563 0 
L 563 4656 
L 1156 4656 
L 1156 525 
L 3313 525 
L 3313 0 
L 563 0 
z
" transform="scale(0.015625)"/>
     <path id="Inter-Regular-67" d="M 1909 -1381 
Q 1328 -1381 981 -1168 
Q 634 -956 472 -669 
L 928 -375 
Q 1003 -475 1114 -597 
Q 1225 -719 1414 -805 
Q 1603 -891 1909 -891 
Q 2328 -891 2598 -691 
Q 2869 -491 2869 -59 
L 2869 641 
L 2816 641 
Q 2756 541 2648 403 
Q 2541 266 2339 161 
Q 2138 56 1800 56 
Q 1381 56 1047 254 
Q 713 453 519 834 
Q 325 1216 325 1763 
Q 325 2303 515 2701 
Q 706 3100 1042 3319 
Q 1378 3538 1813 3538 
Q 2150 3538 2351 3427 
Q 2553 3316 2662 3172 
Q 2772 3028 2831 2934 
L 2884 2934 
L 2884 3494 
L 3431 3494 
L 3431 -91 
Q 3431 -541 3228 -827 
Q 3025 -1113 2679 -1247 
Q 2334 -1381 1909 -1381 
z
M 1894 556 
Q 2369 556 2622 879 
Q 2875 1203 2875 1775 
Q 2875 2331 2626 2682 
Q 2378 3034 1894 3034 
Q 1563 3034 1341 2864 
Q 1119 2694 1008 2409 
Q 897 2125 897 1775 
Q 897 1238 1150 897 
Q 1403 556 1894 556 
z
" transform="scale(0.015625)"/>
     <path id="Inter-Regular-45" d="M 563 0 
L 563 4656 
L 3400 4656 
L 3400 4131 
L 1156 4131 
L 1156 2613 
L 3247 2613 
L 3247 2088 
L 1156 2088 
L 1156 525 
L 3428 525 
L 3428 0 
L 563 0 
z
" transform="scale(0.015625)"/>
     <path id="Inter-Regular-53" d="M 2053 -81 
Q 1297 -81 850 276 
Q 403 634 363 1219 
L 972 1219 
Q 997 956 1150 786 
Q 1303 616 1542 533 
Q 1781 450 2053 450 
Q 2369 450 2620 553 
Q 2872 656 3019 843 
Q 3166 1031 3166 1278 
Q 3166 1503 3039 1643 
Q 2913 1784 2703 1875 
Q 2494 1966 2244 2034 
L 1681 2194 
Q 1119 2353 806 2650 
Q 494 2947 494 3409 
Q 494 3803 706 4098 
Q 919 4394 1281 4556 
Q 1644 4719 2094 4719 
Q 2553 4719 2906 4556 
Q 3259 4394 3464 4114 
Q 3669 3834 3681 3481 
L 3100 3481 
Q 3059 3822 2775 4008 
Q 2491 4194 2075 4194 
Q 1622 4194 1347 3980 
Q 1072 3766 1072 3438 
Q 1072 3194 1223 3045 
Q 1375 2897 1583 2814 
Q 1791 2731 1959 2684 
L 2425 2556 
Q 2613 2506 2839 2418 
Q 3066 2331 3272 2186 
Q 3478 2041 3611 1817 
Q 3744 1594 3744 1269 
Q 3744 888 3545 581 
Q 3347 275 2969 97 
Q 2591 -81 2053 -81 
z
" transform="scale(0.015625)"/>
     <path id="Inter-Regular-2014" d="M 6400 2247 
L 6400 1728 
L 0 1728 
L 0 2247 
L 6400 2247 
z
" transform="scale(0.015625)"/>
     <path id="Inter-Regular-52" d="M 563 0 
L 563 4656 
L 2156 4656 
Q 2700 4656 3051 4470 
Q 3403 4284 3573 3959 
Q 3744 3634 3744 3219 
Q 3744 2756 3533 2412 
Q 3322 2069 2881 1916 
L 3925 0 
L 3238 0 
L 2269 1809 
Q 2216 1806 2159 1806 
L 1156 1806 
L 1156 0 
L 563 0 
z
M 1156 2334 
L 2131 2334 
Q 2681 2334 2917 2571 
Q 3153 2809 3153 3219 
Q 3153 3634 2917 3884 
Q 2681 4134 2125 4134 
L 1156 4134 
L 1156 2334 
z
" transform="scale(0.015625)"/>
     <path id="Inter-Regular-40" d="M 3263 -1234 
Q 1869 -1234 1125 -485 
Q 381 263 381 1641 
Q 381 2531 717 3170 
Q 1053 3809 1684 4151 
Q 2316 4494 3197 4494 
Q 3841 4494 4327 4286 
Q 4813 4078 5141 3723 
Q 5469 3369 5634 2922 
Q 5800 2475 5800 2000 
Q 5800 1666 5765 1330 
Q 5731 994 5623 714 
Q 5516 434 5302 264 
Q 5088 94 4725 94 
Q 4563 94 4372 144 
Q 4181 194 4036 309 
Q 3891 425 3863 619 
L 3838 619 
Q 3756 419 3547 267 
Q 3338 116 2984 116 
Q 2569 116 2289 322 
Q 2009 528 1867 879 
Q 1725 1231 1725 1672 
Q 1725 2091 1892 2422 
Q 2059 2753 2351 2945 
Q 2644 3138 3016 3138 
Q 3316 3138 3517 3028 
Q 3719 2919 3803 2800 
L 3834 2800 
L 3834 3063 
L 4328 3063 
L 4328 1003 
Q 4328 816 4433 675 
Q 4538 534 4738 534 
Q 5081 534 5192 889 
Q 5303 1244 5303 2006 
Q 5303 2394 5173 2758 
Q 5044 3122 4781 3412 
Q 4519 3703 4119 3873 
Q 3719 4044 3178 4044 
Q 2463 4044 1953 3755 
Q 1444 3466 1173 2925 
Q 903 2384 903 1625 
Q 903 472 1512 -154 
Q 2122 -781 3284 -781 
Q 3534 -781 3773 -734 
Q 4013 -688 4200 -630 
Q 4388 -572 4478 -541 
L 4613 -978 
Q 4469 -1038 4242 -1097 
Q 4016 -1156 3758 -1195 
Q 3500 -1234 3263 -1234 
z
M 3006 594 
Q 3459 594 3656 867 
Q 3853 1141 3853 1697 
Q 3853 2256 3642 2461 
Q 3431 2666 3022 2666 
Q 2766 2666 2584 2533 
Q 2403 2400 2306 2179 
Q 2209 1959 2209 1697 
Q 2209 1409 2287 1156 
Q 2366 903 2541 748 
Q 2716 594 3006 594 
z
" transform="scale(0.015625)"/>
    </defs>
    <use xlink:href="#Inter-Regular-4c"/>
    <use xlink:href="#Inter-Regular-6f" transform="translate(56.542969 0)"/>
    <use xlink:href="#Inter-Regular-6e" transform="translate(116.503906 0)"/>
    <use xlink:href="#Inter-Regular-67" transform="translate(175.585938 0)"/>
    <use xlink:href="#Inter-Regular-4d" transform="translate(236.914062 0)"/>
    <use xlink:href="#Inter-Regular-65" transform="translate(327.246094 0)"/>
    <use xlink:href="#Inter-Regular-6d" transform="translate(385.546875 0)"/>
    <use xlink:href="#Inter-Regular-45" transform="translate(473.144531 0)"/>
    <use xlink:href="#Inter-Regular-76" transform="translate(533.251953 0)"/>
    <use xlink:href="#Inter-Regular-61" transform="translate(589.453125 0)"/>
    <use xlink:href="#Inter-Regular-6c" transform="translate(645.605469 0)"/>
    <use xlink:href="#Inter-Regular-2d" transform="translate(669.824219 0)"/>
    <use xlink:href="#Inter-Regular-53" transform="translate(715.820312 0)"/>
    <use xlink:href="#Inter-Regular-20" transform="translate(779.980469 0)"/>
    <use xlink:href="#Inter-Regular-2014" transform="translate(808.105469 0)"/>
    <use xlink:href="#Inter-Regular-20" transform="translate(908.105469 0)"/>
    <use xlink:href="#Inter-Regular-52" transform="translate(936.230469 0)"/>
    <use xlink:href="#Inter-Regular-40" transform="translate(1000.585938 0)"/>
    <use xlink:href="#Inter-Regular-35" transform="translate(1097.167969 0)"/>
    <use xlink:href="#Inter-Regular-20" transform="translate(1156.494141 0)"/>
    <use xlink:href="#Inter-Regular-2f" transform="translate(1184.619141 0)"/>
    <use xlink:href="#Inter-Regular-20" transform="translate(1220.654297 0)"/>
    <use xlink:href="#Inter-Regular-61" transform="translate(1248.779297 0)"/>
    <use xlink:href="#Inter-Regular-63" transform="translate(1304.931641 0)"/>
    <use xlink:href="#Inter-Regular-63" transform="translate(1362.060547 0)"/>
    <use xlink:href="#Inter-Regular-75" transform="translate(1419.189453 0)"/>
    <use xlink:href="#Inter-Regular-72" transform="translate(1478.320312 0)"/>
    <use xlink:href="#Inter-Regular-61" transform="translate(1515.966797 0)"/>
    <use xlink:href="#Inter-Regular-63" transform="translate(1572.119141 0)"/>
    <use xlink:href="#Inter-Regular-79" transform="translate(1629.248047 0)"/>
    <use xlink:href="#Inter-Regular-20" transform="translate(1685.449219 0)"/>
    <use xlink:href="#Inter-Regular-61" transform="translate(1713.574219 0)"/>
    <use xlink:href="#Inter-Regular-63" transform="translate(1769.726562 0)"/>
    <use xlink:href="#Inter-Regular-72" transform="translate(1826.855469 0)"/>
    <use xlink:href="#Inter-Regular-6f" transform="translate(1864.501953 0)"/>
    <use xlink:href="#Inter-Regular-73" transform="translate(1924.462891 0)"/>
    <use xlink:href="#Inter-Regular-73" transform="translate(1977.246094 0)"/>
    <use xlink:href="#Inter-Regular-20" transform="translate(2030.029297 0)"/>
    <use xlink:href="#Inter-Regular-4c" transform="translate(2058.154297 0)"/>
    <use xlink:href="#Inter-Regular-4c" transform="translate(2114.697266 0)"/>
    <use xlink:href="#Inter-Regular-4d" transform="translate(2171.240234 0)"/>
    <use xlink:href="#Inter-Regular-20" transform="translate(2261.572266 0)"/>
    <use xlink:href="#Inter-Regular-6d" transform="translate(2289.697266 0)"/>
    <use xlink:href="#Inter-Regular-65" transform="translate(2377.294922 0)"/>
    <use xlink:href="#Inter-Regular-6d" transform="translate(2435.595703 0)"/>
    <use xlink:href="#Inter-Regular-6f" transform="translate(2523.193359 0)"/>
    <use xlink:href="#Inter-Regular-72" transform="translate(2583.154297 0)"/>
    <use xlink:href="#Inter-Regular-79" transform="translate(2620.800781 0)"/>
    <use xlink:href="#Inter-Regular-20" transform="translate(2677.001953 0)"/>
    <use xlink:href="#Inter-Regular-6c" transform="translate(2705.126953 0)"/>
    <use xlink:href="#Inter-Regular-61" transform="translate(2729.345703 0)"/>
    <use xlink:href="#Inter-Regular-79" transform="translate(2785.498047 0)"/>
    <use xlink:href="#Inter-Regular-65" transform="translate(2841.699219 0)"/>
    <use xlink:href="#Inter-Regular-72" transform="translate(2900 0)"/>
    <use xlink:href="#Inter-Regular-73" transform="translate(2937.646484 0)"/>
   </g>
  </g>
  <g id="text_19">
   <!-- Higher is better · 470 evaluable questions · all numbers from public sources (May 2026) -->
   <g style="fill: #64748b" transform="translate(15.48 30.528) scale(0.1 -0.1)">
    <defs>
     <path id="Inter-Regular-48" d="M 563 0 
L 563 4656 
L 1156 4656 
L 1156 2644 
L 3600 2644 
L 3600 4656 
L 4194 4656 
L 4194 0 
L 3600 0 
L 3600 2119 
L 1156 2119 
L 1156 0 
L 563 0 
z
" transform="scale(0.015625)"/>
     <path id="Inter-Regular-b7" d="M 922 1815 
Q 747 1815 623 1938 
Q 500 2062 500 2237 
Q 500 2412 623 2535 
Q 747 2659 922 2659 
Q 1097 2659 1220 2535 
Q 1344 2412 1344 2237 
Q 1344 2062 1220 1938 
Q 1097 1815 922 1815 
z
" transform="scale(0.015625)"/>
     <path id="Inter-Regular-71" d="M 3425 -1306 
L 2863 -1306 
L 2863 541 
L 2819 541 
Q 2763 444 2652 298 
Q 2541 153 2339 39 
Q 2138 -75 1803 -75 
Q 1369 -75 1034 147 
Q 700 369 512 775 
Q 325 1181 325 1738 
Q 325 2291 514 2695 
Q 703 3100 1037 3319 
Q 1372 3538 1806 3538 
Q 2147 3538 2347 3425 
Q 2547 3313 2655 3170 
Q 2763 3028 2819 2934 
L 2881 2934 
L 2881 3494 
L 3425 3494 
L 3425 -1306 
z
M 1888 428 
Q 2363 428 2616 793 
Q 2869 1159 2869 1744 
Q 2869 2322 2620 2678 
Q 2372 3034 1888 3034 
Q 1556 3034 1336 2862 
Q 1116 2691 1006 2398 
Q 897 2106 897 1744 
Q 897 1378 1008 1079 
Q 1119 781 1341 604 
Q 1563 428 1888 428 
z
" transform="scale(0.015625)"/>
    </defs>
    <use xlink:href="#Inter-Regular-48"/>
    <use xlink:href="#Inter-Regular-69" transform="translate(74.316406 0)"/>
    <use xlink:href="#Inter-Regular-67" transform="translate(98.535156 0)"/>
    <use xlink:href="#Inter-Regular-68" transform="translate(159.863281 0)"/>
    <use xlink:href="#Inter-Regular-65" transform="translate(218.994141 0)"/>
    <use xlink:href="#Inter-Regular-72" transform="translate(277.294922 0)"/>
    <use xlink:href="#Inter-Regular-20" transform="translate(314.941406 0)"/>
    <use xlink:href="#Inter-Regular-69" transform="translate(343.066406 0)"/>
    <use xlink:href="#Inter-Regular-73" transform="translate(367.285156 0)"/>
    <use xlink:href="#Inter-Regular-20" transform="translate(420.068359 0)"/>
    <use xlink:href="#Inter-Regular-62" transform="translate(448.193359 0)"/>
    <use xlink:href="#Inter-Regular-65" transform="translate(509.423828 0)"/>
    <use xlink:href="#Inter-Regular-74" transform="translate(567.724609 0)"/>
    <use xlink:href="#Inter-Regular-74" transform="translate(600.439453 0)"/>
    <use xlink:href="#Inter-Regular-65" transform="translate(633.154297 0)"/>
    <use xlink:href="#Inter-Regular-72" transform="translate(691.455078 0)"/>
    <use xlink:href="#Inter-Regular-20" transform="translate(729.101562 0)"/>
    <use xlink:href="#Inter-Regular-b7" transform="translate(757.226562 0)"/>
    <use xlink:href="#Inter-Regular-20" transform="translate(786.035156 0)"/>
    <use xlink:href="#Inter-Regular-34" transform="translate(814.160156 0)"/>
    <use xlink:href="#Inter-Regular-37" transform="translate(878.759766 0)"/>
    <use xlink:href="#Inter-Regular-30" transform="translate(935.351562 0)"/>
    <use xlink:href="#Inter-Regular-20" transform="translate(998.4375 0)"/>
    <use xlink:href="#Inter-Regular-65" transform="translate(1026.5625 0)"/>
    <use xlink:href="#Inter-Regular-76" transform="translate(1084.863281 0)"/>
    <use xlink:href="#Inter-Regular-61" transform="translate(1141.064453 0)"/>
    <use xlink:href="#Inter-Regular-6c" transform="translate(1197.216797 0)"/>
    <use xlink:href="#Inter-Regular-75" transform="translate(1221.435547 0)"/>
    <use xlink:href="#Inter-Regular-61" transform="translate(1280.566406 0)"/>
    <use xlink:href="#Inter-Regular-62" transform="translate(1336.71875 0)"/>
    <use xlink:href="#Inter-Regular-6c" transform="translate(1397.949219 0)"/>
    <use xlink:href="#Inter-Regular-65" transform="translate(1422.167969 0)"/>
    <use xlink:href="#Inter-Regular-20" transform="translate(1480.46875 0)"/>
    <use xlink:href="#Inter-Regular-71" transform="translate(1508.59375 0)"/>
    <use xlink:href="#Inter-Regular-75" transform="translate(1569.824219 0)"/>
    <use xlink:href="#Inter-Regular-65" transform="translate(1628.955078 0)"/>
    <use xlink:href="#Inter-Regular-73" transform="translate(1687.255859 0)"/>
    <use xlink:href="#Inter-Regular-74" transform="translate(1740.039062 0)"/>
    <use xlink:href="#Inter-Regular-69" transform="translate(1772.753906 0)"/>
    <use xlink:href="#Inter-Regular-6f" transform="translate(1796.972656 0)"/>
    <use xlink:href="#Inter-Regular-6e" transform="translate(1856.933594 0)"/>
    <use xlink:href="#Inter-Regular-73" transform="translate(1916.015625 0)"/>
    <use xlink:href="#Inter-Regular-20" transform="translate(1968.798828 0)"/>
    <use xlink:href="#Inter-Regular-b7" transform="translate(1996.923828 0)"/>
    <use xlink:href="#Inter-Regular-20" transform="translate(2025.732422 0)"/>
    <use xlink:href="#Inter-Regular-61" transform="translate(2053.857422 0)"/>
    <use xlink:href="#Inter-Regular-6c" transform="translate(2110.009766 0)"/>
    <use xlink:href="#Inter-Regular-6c" transform="translate(2134.228516 0)"/>
    <use xlink:href="#Inter-Regular-20" transform="translate(2158.447266 0)"/>
    <use xlink:href="#Inter-Regular-6e" transform="translate(2186.572266 0)"/>
    <use xlink:href="#Inter-Regular-75" transform="translate(2245.654297 0)"/>
    <use xlink:href="#Inter-Regular-6d" transform="translate(2304.785156 0)"/>
    <use xlink:href="#Inter-Regular-62" transform="translate(2392.382812 0)"/>
    <use xlink:href="#Inter-Regular-65" transform="translate(2453.613281 0)"/>
    <use xlink:href="#Inter-Regular-72" transform="translate(2511.914062 0)"/>
    <use xlink:href="#Inter-Regular-73" transform="translate(2549.560547 0)"/>
    <use xlink:href="#Inter-Regular-20" transform="translate(2602.34375 0)"/>
    <use xlink:href="#Inter-Regular-66" transform="translate(2630.46875 0)"/>
    <use xlink:href="#Inter-Regular-72" transform="translate(2667.480469 0)"/>
    <use xlink:href="#Inter-Regular-6f" transform="translate(2705.126953 0)"/>
    <use xlink:href="#Inter-Regular-6d" transform="translate(2765.087891 0)"/>
    <use xlink:href="#Inter-Regular-20" transform="translate(2852.685547 0)"/>
    <use xlink:href="#Inter-Regular-70" transform="translate(2880.810547 0)"/>
    <use xlink:href="#Inter-Regular-75" transform="translate(2942.041016 0)"/>
    <use xlink:href="#Inter-Regular-62" transform="translate(3001.171875 0)"/>
    <use xlink:href="#Inter-Regular-6c" transform="translate(3062.402344 0)"/>
    <use xlink:href="#Inter-Regular-69" transform="translate(3086.621094 0)"/>
    <use xlink:href="#Inter-Regular-63" transform="translate(3110.839844 0)"/>
    <use xlink:href="#Inter-Regular-20" transform="translate(3167.96875 0)"/>
    <use xlink:href="#Inter-Regular-73" transform="translate(3196.09375 0)"/>
    <use xlink:href="#Inter-Regular-6f" transform="translate(3248.876953 0)"/>
    <use xlink:href="#Inter-Regular-75" transform="translate(3308.837891 0)"/>
    <use xlink:href="#Inter-Regular-72" transform="translate(3367.96875 0)"/>
    <use xlink:href="#Inter-Regular-63" transform="translate(3405.615234 0)"/>
    <use xlink:href="#Inter-Regular-65" transform="translate(3462.744141 0)"/>
    <use xlink:href="#Inter-Regular-73" transform="translate(3521.044922 0)"/>
    <use xlink:href="#Inter-Regular-20" transform="translate(3573.828125 0)"/>
    <use xlink:href="#Inter-Regular-28" transform="translate(3601.953125 0)"/>
    <use xlink:href="#Inter-Regular-4d" transform="translate(3638.427734 0)"/>
    <use xlink:href="#Inter-Regular-61" transform="translate(3728.759766 0)"/>
    <use xlink:href="#Inter-Regular-79" transform="translate(3784.912109 0)"/>
    <use xlink:href="#Inter-Regular-20" transform="translate(3841.113281 0)"/>
    <use xlink:href="#Inter-Regular-32" transform="translate(3869.238281 0)"/>
    <use xlink:href="#Inter-Regular-30" transform="translate(3930.224609 0)"/>
    <use xlink:href="#Inter-Regular-32" transform="translate(3993.310547 0)"/>
    <use xlink:href="#Inter-Regular-36" transform="translate(4054.296875 0)"/>
    <use xlink:href="#Inter-Regular-29" transform="translate(4116.308594 0)"/>
   </g>
  </g>
  <g id="text_20">
   <!-- Sources: MemoryPilot - -benchmark-longmemeval @470 · MemPalace v3.3.3 notes · mem0.ai blog · mcp-memory-service v10.34.0 · Zep arXiv 2501.13956 -->
   <g style="fill: #94a3b8" transform="translate(7.2 372.672) scale(0.08 -0.08)">
    <defs>
     <path id="Inter-Regular-3a" d="M 922 -41 
Q 747 -41 623 82 
Q 500 206 500 381 
Q 500 556 623 679 
Q 747 803 922 803 
Q 1097 803 1220 679 
Q 1344 556 1344 381 
Q 1344 206 1220 82 
Q 1097 -41 922 -41 
z
M 922 2519 
Q 747 2519 623 2642 
Q 500 2766 500 2941 
Q 500 3116 623 3239 
Q 747 3363 922 3363 
Q 1097 3363 1220 3239 
Q 1344 3116 1344 2941 
Q 1344 2766 1220 2642 
Q 1097 2519 922 2519 
z
" transform="scale(0.015625)"/>
     <path id="Inter-Regular-6b" d="M 494 0 
L 494 4656 
L 1056 4656 
L 1056 1953 
L 1125 1953 
L 2619 3494 
L 3316 3494 
L 1853 1994 
L 3425 0 
L 2703 0 
L 1425 1634 
L 1056 1288 
L 1056 0 
L 494 0 
z
" transform="scale(0.015625)"/>
     <path id="Inter-Regular-58" d="M 178 0 
L 1847 2384 
L 281 4656 
L 969 4656 
L 1641 3669 
Q 1778 3469 1868 3328 
Q 1959 3188 2032 3058 
Q 2106 2928 2191 2766 
Q 2272 2928 2347 3058 
Q 2422 3188 2514 3328 
Q 2606 3469 2744 3669 
L 3428 4656 
L 4100 4656 
L 2534 2406 
L 4188 0 
L 3503 0 
L 2688 1181 
Q 2513 1438 2406 1605 
Q 2300 1772 2184 2000 
Q 2072 1778 1962 1608 
Q 1853 1438 1675 1181 
L 853 0 
L 178 0 
z
" transform="scale(0.015625)"/>
    </defs>
    <use xlink:href="#Inter-Regular-53"/>
    <use xlink:href="#Inter-Regular-6f" transform="translate(64.160156 0)"/>
    <use xlink:href="#Inter-Regular-75" transform="translate(124.121094 0)"/>
    <use xlink:href="#Inter-Regular-72" transform="translate(183.251953 0)"/>
    <use xlink:href="#Inter-Regular-63" transform="translate(220.898438 0)"/>
    <use xlink:href="#Inter-Regular-65" transform="translate(278.027344 0)"/>
    <use xlink:href="#Inter-Regular-73" transform="translate(336.328125 0)"/>
    <use xlink:href="#Inter-Regular-3a" transform="translate(389.111328 0)"/>
    <use xlink:href="#Inter-Regular-20" transform="translate(417.919922 0)"/>
    <use xlink:href="#Inter-Regular-4d" transform="translate(446.044922 0)"/>
    <use xlink:href="#Inter-Regular-65" transform="translate(536.376953 0)"/>
    <use xlink:href="#Inter-Regular-6d" transform="translate(594.677734 0)"/>
    <use xlink:href="#Inter-Regular-6f" transform="translate(682.275391 0)"/>
    <use xlink:href="#Inter-Regular-72" transform="translate(742.236328 0)"/>
    <use xlink:href="#Inter-Regular-79" transform="translate(779.882812 0)"/>
    <use xlink:href="#Inter-Regular-50" transform="translate(836.083984 0)"/>
    <use xlink:href="#Inter-Regular-69" transform="translate(899.951172 0)"/>
    <use xlink:href="#Inter-Regular-6c" transform="translate(924.169922 0)"/>
    <use xlink:href="#Inter-Regular-6f" transform="translate(948.388672 0)"/>
    <use xlink:href="#Inter-Regular-74" transform="translate(1008.349609 0)"/>
    <use xlink:href="#Inter-Regular-20" transform="translate(1041.064453 0)"/>
    <use xlink:href="#Inter-Regular-2d" transform="translate(1069.189453 0)"/>
    <use xlink:href="#Inter-Regular-2d" transform="translate(1115.185547 0)"/>
    <use xlink:href="#Inter-Regular-62" transform="translate(1161.181641 0)"/>
    <use xlink:href="#Inter-Regular-65" transform="translate(1222.412109 0)"/>
    <use xlink:href="#Inter-Regular-6e" transform="translate(1280.712891 0)"/>
    <use xlink:href="#Inter-Regular-63" transform="translate(1339.794922 0)"/>
    <use xlink:href="#Inter-Regular-68" transform="translate(1396.923828 0)"/>
    <use xlink:href="#Inter-Regular-6d" transform="translate(1456.054688 0)"/>
    <use xlink:href="#Inter-Regular-61" transform="translate(1543.652344 0)"/>
    <use xlink:href="#Inter-Regular-72" transform="translate(1599.804688 0)"/>
    <use xlink:href="#Inter-Regular-6b" transform="translate(1637.451172 0)"/>
    <use xlink:href="#Inter-Regular-2d" transform="translate(1692.333984 0)"/>
    <use xlink:href="#Inter-Regular-6c" transform="translate(1738.330078 0)"/>
    <use xlink:href="#Inter-Regular-6f" transform="translate(1762.548828 0)"/>
    <use xlink:href="#Inter-Regular-6e" transform="translate(1822.509766 0)"/>
    <use xlink:href="#Inter-Regular-67" transform="translate(1881.591797 0)"/>
    <use xlink:href="#Inter-Regular-6d" transform="translate(1942.919922 0)"/>
    <use xlink:href="#Inter-Regular-65" transform="translate(2030.517578 0)"/>
    <use xlink:href="#Inter-Regular-6d" transform="translate(2088.818359 0)"/>
    <use xlink:href="#Inter-Regular-65" transform="translate(2176.416016 0)"/>
    <use xlink:href="#Inter-Regular-76" transform="translate(2234.716797 0)"/>
    <use xlink:href="#Inter-Regular-61" transform="translate(2290.917969 0)"/>
    <use xlink:href="#Inter-Regular-6c" transform="translate(2347.070312 0)"/>
    <use xlink:href="#Inter-Regular-20" transform="translate(2371.289062 0)"/>
    <use xlink:href="#Inter-Regular-40" transform="translate(2399.414062 0)"/>
    <use xlink:href="#Inter-Regular-34" transform="translate(2495.996094 0)"/>
    <use xlink:href="#Inter-Regular-37" transform="translate(2560.595703 0)"/>
    <use xlink:href="#Inter-Regular-30" transform="translate(2617.1875 0)"/>
    <use xlink:href="#Inter-Regular-20" transform="translate(2680.273438 0)"/>
    <use xlink:href="#Inter-Regular-b7" transform="translate(2708.398438 0)"/>
    <use xlink:href="#Inter-Regular-20" transform="translate(2737.207031 0)"/>
    <use xlink:href="#Inter-Regular-4d" transform="translate(2765.332031 0)"/>
    <use xlink:href="#Inter-Regular-65" transform="translate(2855.664062 0)"/>
    <use xlink:href="#Inter-Regular-6d" transform="translate(2913.964844 0)"/>
    <use xlink:href="#Inter-Regular-50" transform="translate(3001.5625 0)"/>
    <use xlink:href="#Inter-Regular-61" transform="translate(3065.429688 0)"/>
    <use xlink:href="#Inter-Regular-6c" transform="translate(3121.582031 0)"/>
    <use xlink:href="#Inter-Regular-61" transform="translate(3145.800781 0)"/>
    <use xlink:href="#Inter-Regular-63" transform="translate(3201.953125 0)"/>
    <use xlink:href="#Inter-Regular-65" transform="translate(3259.082031 0)"/>
    <use xlink:href="#Inter-Regular-20" transform="translate(3317.382812 0)"/>
    <use xlink:href="#Inter-Regular-76" transform="translate(3345.507812 0)"/>
    <use xlink:href="#Inter-Regular-33" transform="translate(3401.708984 0)"/>
    <use xlink:href="#Inter-Regular-2e" transform="translate(3463.476562 0)"/>
    <use xlink:href="#Inter-Regular-33" transform="translate(3492.285156 0)"/>
    <use xlink:href="#Inter-Regular-2e" transform="translate(3554.052734 0)"/>
    <use xlink:href="#Inter-Regular-33" transform="translate(3582.861328 0)"/>
    <use xlink:href="#Inter-Regular-20" transform="translate(3644.628906 0)"/>
    <use xlink:href="#Inter-Regular-6e" transform="translate(3672.753906 0)"/>
    <use xlink:href="#Inter-Regular-6f" transform="translate(3731.835938 0)"/>
    <use xlink:href="#Inter-Regular-74" transform="translate(3791.796875 0)"/>
    <use xlink:href="#Inter-Regular-65" transform="translate(3824.511719 0)"/>
    <use xlink:href="#Inter-Regular-73" transform="translate(3882.8125 0)"/>
    <use xlink:href="#Inter-Regular-20" transform="translate(3935.595703 0)"/>
    <use xlink:href="#Inter-Regular-b7" transform="translate(3963.720703 0)"/>
    <use xlink:href="#Inter-Regular-20" transform="translate(3992.529297 0)"/>
    <use xlink:href="#Inter-Regular-6d" transform="translate(4020.654297 0)"/>
    <use xlink:href="#Inter-Regular-65" transform="translate(4108.251953 0)"/>
    <use xlink:href="#Inter-Regular-6d" transform="translate(4166.552734 0)"/>
    <use xlink:href="#Inter-Regular-30" transform="translate(4254.150391 0)"/>
    <use xlink:href="#Inter-Regular-2e" transform="translate(4317.236328 0)"/>
    <use xlink:href="#Inter-Regular-61" transform="translate(4346.044922 0)"/>
    <use xlink:href="#Inter-Regular-69" transform="translate(4402.197266 0)"/>
    <use xlink:href="#Inter-Regular-20" transform="translate(4426.416016 0)"/>
    <use xlink:href="#Inter-Regular-62" transform="translate(4454.541016 0)"/>
    <use xlink:href="#Inter-Regular-6c" transform="translate(4515.771484 0)"/>
    <use xlink:href="#Inter-Regular-6f" transform="translate(4539.990234 0)"/>
    <use xlink:href="#Inter-Regular-67" transform="translate(4599.951172 0)"/>
    <use xlink:href="#Inter-Regular-20" transform="translate(4661.279297 0)"/>
    <use xlink:href="#Inter-Regular-b7" transform="translate(4689.404297 0)"/>
    <use xlink:href="#Inter-Regular-20" transform="translate(4718.212891 0)"/>
    <use xlink:href="#Inter-Regular-6d" transform="translate(4746.337891 0)"/>
    <use xlink:href="#Inter-Regular-63" transform="translate(4833.935547 0)"/>
    <use xlink:href="#Inter-Regular-70" transform="translate(4891.064453 0)"/>
    <use xlink:href="#Inter-Regular-2d" transform="translate(4952.294922 0)"/>
    <use xlink:href="#Inter-Regular-6d" transform="translate(4998.291016 0)"/>
    <use xlink:href="#Inter-Regular-65" transform="translate(5085.888672 0)"/>
    <use xlink:href="#Inter-Regular-6d" transform="translate(5144.189453 0)"/>
    <use xlink:href="#Inter-Regular-6f" transform="translate(5231.787109 0)"/>
    <use xlink:href="#Inter-Regular-72" transform="translate(5291.748047 0)"/>
    <use xlink:href="#Inter-Regular-79" transform="translate(5329.394531 0)"/>
    <use xlink:href="#Inter-Regular-2d" transform="translate(5385.595703 0)"/>
    <use xlink:href="#Inter-Regular-73" transform="translate(5431.591797 0)"/>
    <use xlink:href="#Inter-Regular-65" transform="translate(5484.375 0)"/>
    <use xlink:href="#Inter-Regular-72" transform="translate(5542.675781 0)"/>
    <use xlink:href="#Inter-Regular-76" transform="translate(5580.322266 0)"/>
    <use xlink:href="#Inter-Regular-69" transform="translate(5636.523438 0)"/>
    <use xlink:href="#Inter-Regular-63" transform="translate(5660.742188 0)"/>
    <use xlink:href="#Inter-Regular-65" transform="translate(5717.871094 0)"/>
    <use xlink:href="#Inter-Regular-20" transform="translate(5776.171875 0)"/>
    <use xlink:href="#Inter-Regular-76" transform="translate(5804.296875 0)"/>
    <use xlink:href="#Inter-Regular-31" transform="translate(5860.498047 0)"/>
    <use xlink:href="#Inter-Regular-30" transform="translate(5901.171875 0)"/>
    <use xlink:href="#Inter-Regular-2e" transform="translate(5964.257812 0)"/>
    <use xlink:href="#Inter-Regular-33" transform="translate(5993.066406 0)"/>
    <use xlink:href="#Inter-Regular-34" transform="translate(6054.833984 0)"/>
    <use xlink:href="#Inter-Regular-2e" transform="translate(6119.433594 0)"/>
    <use xlink:href="#Inter-Regular-30" transform="translate(6148.242188 0)"/>
    <use xlink:href="#Inter-Regular-20" transform="translate(6211.328125 0)"/>
    <use xlink:href="#Inter-Regular-b7" transform="translate(6239.453125 0)"/>
    <use xlink:href="#Inter-Regular-20" transform="translate(6268.261719 0)"/>
    <use xlink:href="#Inter-Regular-5a" transform="translate(6296.386719 0)"/>
    <use xlink:href="#Inter-Regular-65" transform="translate(6359.277344 0)"/>
    <use xlink:href="#Inter-Regular-70" transform="translate(6417.578125 0)"/>
    <use xlink:href="#Inter-Regular-20" transform="translate(6478.808594 0)"/>
    <use xlink:href="#Inter-Regular-61" transform="translate(6506.933594 0)"/>
    <use xlink:href="#Inter-Regular-72" transform="translate(6563.085938 0)"/>
    <use xlink:href="#Inter-Regular-58" transform="translate(6600.732422 0)"/>
    <use xlink:href="#Inter-Regular-69" transform="translate(6668.945312 0)"/>
    <use xlink:href="#Inter-Regular-76" transform="translate(6693.164062 0)"/>
    <use xlink:href="#Inter-Regular-20" transform="translate(6749.365234 0)"/>
    <use xlink:href="#Inter-Regular-32" transform="translate(6777.490234 0)"/>
    <use xlink:href="#Inter-Regular-35" transform="translate(6838.476562 0)"/>
    <use xlink:href="#Inter-Regular-30" transform="translate(6897.802734 0)"/>
    <use xlink:href="#Inter-Regular-31" transform="translate(6960.888672 0)"/>
    <use xlink:href="#Inter-Regular-2e" transform="translate(7001.5625 0)"/>
    <use xlink:href="#Inter-Regular-31" transform="translate(7030.371094 0)"/>
    <use xlink:href="#Inter-Regular-33" transform="translate(7071.044922 0)"/>
    <use xlink:href="#Inter-Regular-39" transform="translate(7132.8125 0)"/>
    <use xlink:href="#Inter-Regular-35" transform="translate(7194.824219 0)"/>
    <use xlink:href="#Inter-Regular-36" transform="translate(7254.150391 0)"/>
   </g>
  </g>
 </g>
 <defs>
  <clipPath id="p989416e4fa">
   <rect x="201.095" y="87.222375" width="615.025" height="245.625625"/>
  </clipPath>
 </defs>
</svg>
